<?xml version="1.0" encoding="UTF-8" standalone="no"?>
<!-- Created with Inkscape (http://www.inkscape.org/) -->
<svg id="svg3860" xmlns:rdf="http://www.w3.org/1999/02/22-rdf-syntax-ns#" xmlns="http://www.w3.org/2000/svg" height="20.701mm" width="18.542mm" version="1.1" xmlns:cc="http://creativecommons.org/ns#" xmlns:dc="http://purl.org/dc/elements/1.1/" viewBox="0 0 65.700006 73.35">
 <metadata id="metadata3865">
  <rdf:RDF>
   <cc:Work rdf:about="">
    <dc:format>image/svg+xml</dc:format>
    <dc:type rdf:resource="http://purl.org/dc/dcmitype/StillImage"/>
    <dc:title/>
   </cc:Work>
  </rdf:RDF>
 </metadata>
 <g id="layer1" transform="translate(-92.864 -181.4)">
  <path id="path340" fill="#fff" d="m157.76 215.8c0.2-1.4 0.1-2.3-0.4-2.7s-1.2-0.2-1.9 0.4c-0.4-0.2-1 0-1.8 0.7 0.1-0.3 0.1-0.6 0-0.9 0.7-0.3 1.1-0.7 1.3-1 0.2-0.4 0.3-1 0.3-1.8 0.1-0.5 0.5-1.4 1.4-2.7 0.6-1.3 0.2-1.7-1.2-1.3 0.8-0.7 1.1-1.3 1.1-1.8 0.1-0.5-0.1-1.1-0.6-1.8-0.2-0.4-0.5-0.5-0.8-0.2 0.1-0.3 0.2-0.6 0.2-0.9 0-0.4-0.2-1.1-0.7-2.3-0.1-1.5-0.4-2.2-1.1-1.9-0.1-0.8-0.4-1.6-0.8-2.3-0.6-0.9-1.1-1.2-1.5-0.7-1-1.5-2-2.1-2.8-1.9 0-0.6-0.2-1.2-0.7-1.8-0.2-1-0.5-1.7-0.9-2.1-0.5-0.2-0.8 0.1-1 0.8-0.1-0.6-0.3-1.2-0.5-1.8-0.3-0.6-0.7-0.9-1.4-1-0.2 0-0.5 0-0.7 0.1-0.4-0.3-0.8-0.4-1.1-0.4-0.9-0.9-1.7-1-2.4-0.2l-0.1-0.8c-0.3-1-0.8-1.2-1.6-0.6-1.3-1.3-2.4-2.2-3.3-2.6-0.8-0.3-1.2-0.2-1.5 0.2-0.4-0.4-0.8-0.6-1.2-0.7s-0.9-0.2-1.2-0.4c-0.6 0-0.9 0.3-0.8 1-0.9 0.1-1.6 0.2-1.9 0.5-0.4 0.3-0.4 0.7-0.3 1.1 0.2 0.5 0.5 0.9 1.1 1.2-0.2 0.2-0.2 0.5-0.2 0.9s0.4 0.7 1.2 1c0.6 0.2 1.2 0.2 1.8 0-0.1 0.6 0.1 1 0.6 1.1 0.8 0.8 1.7 1 2.8 0.6l-0.1 0.7 1.5 0.6c0.1 0.7 0.4 1.2 1 1.6l0.6 0.3c-0.1 0-0.7 0.5-0.7 0.6-0.1 0.1-0.3 0.5-0.1 0.8l0.3-0.3c0.2 0.1 0.5 0.4 0.9 0.6h1.1c0 0.2 0.1 0.5 0.3 0.7 0.1 0.2 0.4 0.6 0.8 1.1s1.2 0.9 1.9 1.2c0 0-0.2 0.6-0.4 1-0.1 0.3-0.2 0.6-0.2 1l-0.8 0.4c-0.7-0.8-1.4-1.5-2.2-2.2l0.9-2.1c-0.2-0.2-0.9-0.7-1.5-1.1-0.3 0-0.6 0-0.8-0.1-0.2 0-0.4-0.1-0.4-0.2l-1.3 1.2c-0.9-0.5-1.8-1-2.8-1.4l0.3-2.3c-0.4-0.2-2.3-0.8-2.8-0.9l-1.1 2c-1-0.2-2-0.4-3.1-0.5l-0.5-2.2h-2.9l-0.4 2.2c-1 0.1-2.1 0.2-3.1 0.5l-1.1-2c-0.5 0.1-2.3 0.7-2.8 0.9l0.3 2.3c-0.9 0.4-1.9 0.9-2.8 1.4l-1.7-1.5c-0.1 0.1-0.4 0.2-0.6 0.5-0.4 0.8-0.9 1.6-1.3 2.3l0.5 1c-0.4 0.4-0.9 0.8-1.3 1.2v-1c0 0.2 0.3-0.4 0.8-1.3l-0.3-0.6-0.7 1.3c-1 0.1-2 0.6-2.9 1.4 0.5-0.8 1-1.7 1.7-2.8 0.7-1 1.7-2.6 3.1-4.7 0.2-0.4 0.2-0.5 0-0.3s-0.8 0.9-1.8 2.2-2.2 3.3-3.9 6c-0.4 0.6-1.2 1.9-2.6 4-0.2 0.3-0.4 0.6-0.6 1-0.1 0.1-0.5 0.2-1.2 0.2l-1.3 3.8c0.1 0.1 0.4 0.1 1-0.2-0.3 0.5-0.6 0.8-1.2 0.8l-0.3-0.2-0.2-0.6v-0.3h0.3l1.4-3.5-0.8-1 0.2-0.6c0.3 0.5 0.5 0.8 0.7 0.9 0.4-0.7 0.9-1.7 1.6-2.9s1.5-2.4 2.4-3.7v-0.3c0-0.2 0.1-0.2 0.3 0l1.9-2.8-1.6 2.8c0.3 0.3 0.1 0.5-0.3 0.6-1.7 2.2-2.9 4.4-3.8 6.6l0.4 0.1c0.2 0.1 0.5 0 0.7-0.3l2.4-4.2 2.3-4.2c1.1-1.9 2.3-3.4 3.7-4.4 0.4-0.2 0.7-0.3 0.9-0.3 0.1 0.1 0.1 0.3 0.1 0.5v0.6c0 0.1 0 0.3-0.1 0.4-0.1 0.5-0.5 1.3-0.9 2.4l-0.3 0.6c0.3-0.2 0.7-0.5 1.1-0.8 0.4-0.7 0.6-1.3 0.7-1.6l0.3-0.1 0.4-0.2c1.3-0.5 2.4-1.1 3.4-1.5l1.6-0.8c1.1-0.5 2.1-1.1 3.1-1.9 1-0.9 1.6-1.9 1.7-2.8-0.2-0.2-0.7-0.4-1.6-0.4 0.5-0.5 0.7-1.1 0.7-1.6-0.3-0.5-1.4-0.5-3-0.2-1.8 0.4-3.3 1.1-4.6 2.1-1.4 0.9-2.6 1.9-3.6 3.1-1.1 1.2-1.9 2.5-2.6 3.8l0.8-1.8c0.4-0.9 0.8-1.9 1.2-3 0.1-0.5 0.1-0.9 0-1.2-0.1-0.2-0.4-0.3-0.8-0.2s-1.2 0.6-2.3 1.6c-1.2 1.2-2.3 2.7-3.2 4.5s-1.6 3.2-1.9 4.2c0.2-1.2 0.2-2.2-0.1-3-0.1-0.3-0.4-0.4-0.8-0.3-0.4 0.3-0.8 0.7-1.2 1.3s-0.8 1.1-1.2 1.7c-0.4 0.5-0.8 1.3-1.4 2.3-0.5 1-1 2.2-1.4 3.5-0.4 1.4-0.7 3.1-0.9 5.4-0.1 1.4 0 3 0.3 4.6 0.4 1.6 0.8 2.8 1.2 3.6s0.8 1.2 1.2 1.4c0.2 0.6 0.5 1.5 0.9 2.8 0.2 0.6 0.3 1.1 0.3 1.4s0.1 0.6 0.3 0.7 0.4 0.4 0.5 0.8c0.3 1.2 0.8 2.4 1.4 3.5-0.1 0.6-0.2 1.1-0.2 1.7-1.2-3.6-2.3-6.3-3-8.2-1.5-3.4-2.7-4.9-3.5-4.6-0.4 0.2-0.7 0.5-0.8 1.1v1.8c0 1 0.1 2 0.3 3 0.8 3.5 2.1 6.3 4 8.6l2.8 3.4c0.6 0.6 1.1 1 1.6 1.3s1 0.3 1.4 0.2c0.6 1 1.5 2.1 2.5 3.3 0.6 1 1.3 1.4 2 1.4 0.3 0.6 0.7 0.9 1.3 0.9l0.6-0.1c0.8 0.8 1.5 1.4 2.2 1.9l-0.7 2.1c-1.3 0.2-2.5 0.3-3.6 0.3-1-0.7-2.4-1.7-4.3-3l-0.1-2.3c0-0.8 0.1-1.5 0.4-2 0.1-0.4-0.2-0.9-0.7-1.2-0.9-0.4-1.5-0.6-1.8-0.5-0.1 0.1-0.2 0.2-0.3 0.4v1.3l-3.7 0.1c-0.3 0-0.6 0.1-0.8 0.4s-0.2 0.8 0 1.6v0.7c-0.2 0.8-0.7 1.8-1.4 3-0.1 0.2-0.1 0.5 0.1 0.8 0.2 0.4 0.7 0.9 1.5 1.7 0.3 0.3 0.9 0.8 1.5 1.2 0.7 0.5 1.9 1.2 3.6 2.3 2.1 1.2 4 2.2 5.9 3 0.4 0 3-0.3 7.8-1.1v0.4c-1.4 1-2.3 1.5-2.6 1.3-0.5 0.1-0.7 0.5-0.5 1.2 0.2 0.3 0.4 0.6 0.9 0.7l0.5 0.6 1.4 0.9c0.5 0.2 1.1 0.2 1.6 0s0.8-0.6 0.9-1.2l0.2-0.2 1.6-1.6 1.1-0.9c0.9-0.2 1.5-0.5 1.7-0.9 0.1-0.4 0.2-0.7 0.3-0.8l1.4-0.9c0-0.1 0.6 0.1 1.7 0.7 0.5 0.1 1 0.1 1.4-0.1l1-0.6c0.9 0.2 2.5 1.3 4.8 3.4 0 0.2 0.1 0.5 0.4 0.8 0.2 0.2 0.7 0.4 1.5 0.6l0.6 1 0.5 0.2c0.8 0 1.6-0.3 2.3-0.9l0.9-0.3c0.4-0.3 0.6-0.7 0.6-1l-0.4-0.3-0.7-0.2c-0.9-0.4-1.9-1-2.8-1.8l-0.6-0.5c2.8 0.5 6.4 0.9 10.6 1.2 0.5 0.1 1.2-0.2 2.1-0.8s3.5-2.5 7.9-5.6c0.7-0.7 1.2-1.5 1.6-2.4-0.4-0.4-0.7-0.9-1-1.6s-0.5-1.2-0.6-1.7c-0.1-0.4-0.1-0.8 0-1.2s0-0.7-0.3-1c-0.1-0.2-0.4-0.3-0.9-0.3-0.8-0.1-1.8-0.1-2.8 0-0.5-0.1-0.8-0.2-0.9-0.3v-0.9c0.1-0.4 0-0.6-0.4-0.5-1.1 0.3-1.8 0.6-2.1 0.9-0.3 0.4-0.3 0.8 0 1.2 0.3 0.3 0.4 0.6 0.4 0.9-0.2 1.7-0.3 2.9-0.4 3.5-1.9 1.5-3.2 2.4-3.9 2.8-0.5 0.2-1.8 0.1-3.7-0.2-0.4-0.4-0.7-1-0.9-1.9 0.7-0.4 1.3-0.9 2.1-1.4 0.5-0.1 0.9-0.2 1.3-0.3 0.3-0.1 0.5-0.4 0.5-1 0.3-0.1 0.6-0.4 0.7-0.9l2.3-2.7c0.7-0.6 1.5-1 2.4-1.1 1-0.1 2.4-0.7 4.1-1.8 0.3-0.3 0.3-0.7 0-1.2 0.5-0.3 1.3-1.1 2.4-2.4 0.4-0.6 0.6-1.3 0.3-2.1 1-1.2 1.6-2.2 1.8-3 0.1-0.7 0.1-1.4 0-2.1 0.5-0.3 0.8-0.6 1-0.8s0.3-0.5 0.3-0.9-0.1-0.7-0.4-1c0.1-0.9 0.2-1.9-0.4-2.7zm-36.3-31.1c0 0.5-0.3 1-0.9 1.6-0.9 0.8-2 1.6-3.4 2.3s-3.1 1.5-5.3 2.5v-0.2c2.7-2 5.1-3.6 7.4-4.8 0.6-0.4 0.6-0.5-0.1-0.3-0.8 0.4-1.6 0.9-2.6 1.4-1.6 1-3.1 2-4.6 3v-0.5c3-2.6 5.4-4.3 7.3-5 0.9-0.2 1.6-0.2 2.2 0zm-8.8 0.9c1.4-1.2 3.1-2.1 5.1-2.7 1-0.3 1.8-0.4 2.5-0.4 0.3 0.1 0.4 0.3 0.3 0.6l-0.9 1.1c-0.8 0.1-1.8 0.5-3.1 1.3s-2.7 1.8-4.2 3l-0.5 0.4c-0.3-0.2-0.8-0.1-1.6 0.3 2.4-2 4.5-3.5 6.2-4.6 1.1-0.6 1.8-1 2-1.2-0.6 0.2-1.4 0.5-2.4 1.1s-2.8 1.7-5.1 3.5l-2.3 2.1c1.2-1.8 2.6-3.3 4-4.5zm23.1 3.4 0.1-0.9-0.7 0.2c-0.7 0.2-1.4 0-2.1-0.6-0.5 0.1-0.7-0.1-0.6-0.5 0.2-0.4 0.1-0.6-0.2-0.6l-1.1 0.1c-0.7-0.1-1.2-0.3-1.4-0.6s0-0.6 0.3-1c-0.7-0.3-1.1-0.6-1.3-0.9s-0.1-0.6 0.3-0.8 1.1-0.2 2.1-0.1c-0.2-0.3-0.3-0.6-0.2-0.9 0-0.3 0.7-0.1 2 0.5l0.8 0.5c0.2-0.4 0.6-0.5 1.1-0.4 0.6 0.3 1.2 0.6 1.7 1s1.1 1 1.8 1.7c0.5-0.4 0.9-0.3 1.2 0.2l0.1 0.9c-0.6-0.5-1.3-0.6-2.1-0.1l-0.5-0.2c-0.8-0.9-1.2-1.6-1.4-2.1-0.2-0.6-0.2-0.6-0.2-0.2 0 0.5 0.3 1.2 0.9 2-1.1-0.4-2-0.8-2.5-1.4s-0.9-1.1-1.2-1.4c-0.3-0.5-0.4-0.5-0.3 0 0.3 0.6 0.7 1.1 1.3 1.6-0.4-0.2-0.8-0.4-1.2-0.5-0.9-0.4-1.7-0.6-2.3-0.6-0.3 0-0.3 0.1 0 0.2 1 0.3 1.7 0.5 2.2 0.7s0.8 0.4 0.9 0.6c-0.7 0.3-1.5 0.5-2.3 0.4h-0.7c0.1 0 0.2 0.1 0.5 0.2 0.9 0.1 1.9 0 2.9-0.3 0.7 0.4 1.5 0.7 2.5 1-0.6 0.1-1.1 0.4-1.7 0.8-0.2 0.3-0.1 0.3 0.3 0s1-0.5 1.9-0.6l0.7 0.3c-0.1 0.7 0.1 1.4 0.5 2.1l-0.4 0.2-1.7-0.5zm4.5 4.1c-1.5 0-1.7 0-1.8-0.2s-0.1-0.3 0.4-0.6l0.3-0.4c-0.8-0.4-1.6-0.8-1.7-1.9l0.7-0.3c0.3-0.4 0.3-0.6 0-0.8s-0.5-0.7-0.5-1.4c0.3-0.6 1-0.6 2.1 0 0.5-1 1.1-1.2 1.8-0.9-0.8 0-1.2 0.3-1.3 1-0.1 0.4-0.1 0.9 0 1.5-0.3-0.4-0.6-0.7-0.9-0.9-0.7-0.4-0.8-0.3-0.4 0.1s0.8 0.9 1.2 1.4c-0.6 0.5-1.2 0.7-1.9 0.6-0.2 0.1-0.2 0.2 0.1 0.2 0.3 0.1 0.7 0 1.1-0.1-0.1 0.4 0.1 1.1 0.3 1.5 0.2 0.3 0.6 0.7 1 0.9-0.3 0.1-0.4 0.2-0.5 0.3zm0.8 0.8c0-0.3 0.2-0.5 0.8-0.5s0.7-0.2 0.3-0.5c-0.8-0.3-1.4-0.7-1.9-1.3-0.3-0.4-0.3-0.8 0-0.9l0.6-0.2 0.3-0.3-0.3-1.4c-0.1-0.7 0.1-1.2 0.6-1.5 0.7-0.1 1.4 0.1 2.1 0.6 0-0.4 0.3-0.5 0.7-0.3 0.5 0.1 0.9 1.1 1.3 2.9l0.6 0.2c0.2-0.5 0.4-0.7 0.5-0.7 0.2 0 0.4 0.4 0.6 1.3 0.5 0.5 0.8 1.2 0.7 2.3-0.3 0.4-0.5 1-0.5 1.6l-0.3-0.7c-0.2-0.8-0.3-1.6-0.2-2.5 0-0.4-0.1-0.4-0.1 0-0.1 0.8-0.1 1.4 0 1.9-0.7-0.9-1.5-1.7-2.3-2.5-0.2-0.6-0.2-1.2-0.2-2-0.1-0.6-0.1-0.8-0.2-0.4 0 0.8 0 1.5 0.1 2.2-0.6-0.6-1.3-1.5-2.1-2.6-0.2-0.4-0.3-0.4-0.3-0.2 0.5 0.9 1 1.7 1.6 2.3 0.5 0.6 1 1.1 1.3 1.5-0.7-0.2-1.3-0.3-1.8-0.4s-0.9-0.2-1.4-0.4c-0.4-0.1-0.4 0 0 0.3 0.2 0.2 0.7 0.3 1.4 0.4s1.4 0.3 2 0.7c0.3 0.2 0.8 0.7 1.4 1.6l0.5 1c-0.7-0.4-1.5-0.7-2.4-0.8-0.9-0.2-1.4-0.3-1.6-0.4-0.7-0.3-0.8-0.3-0.2 0.1 0.2 0.2 0.7 0.3 1.7 0.5 0.9 0.2 1.9 0.6 2.7 1.1l0.1 0.2c-0.2 0.2-0.3 0.5-0.2 0.9l0.3 0.8c-0.2-0.3-0.6-0.2-1 0.4 0.2-0.3 0.1-0.6-0.1-0.9-0.4-0.5-1.3-1.1-2.6-1.8l-0.2 0.4c-1.3-0.4-2-1-2.3-2zm2.3 6c-0.3-0.5-0.5-0.9-0.4-1.2v-0.3c0-0.4 0.1-0.8 0.3-1.2 0.2-0.3 0.3-0.6 0.3-0.9 0.5 0.3 0.9 0.5 1.3 0.7s0.6 0.6 0.6 1.1l-0.2 1.2c0.1 0.2 0.3 0.2 0.6-0.2 0.3-0.5 0.6-0.7 0.8-0.8 0.3 0.1 0.6 0.4 0.8 0.7 0.3 0.5 0.2 1.4-0.3 2.7l-0.4 1.1c0.9-1.2 1.6-1.7 2.1-1.7 0.2 0.1 0.2 0.4 0.2 0.8-0.1 0.4-0.1 0.8 0 1.3 0.1 0.4-0.1 0.8-0.4 1.1-0.4 0.3-0.6 0.8-0.7 1.5 0.8-0.6 1.2-0.5 1 0.3l-0.5 1.7c-0.1 0.8 0 1.2 0.4 1.1s0.6 0 0.7 0.2 0.1 0.4 0.1 0.8c-0.2 0.5-0.3 0.9-0.3 1.1s0.1 0.3 0.2 0.4 0.4 0.1 0.8-0.1 0.6-0.1 0.6 0.4v1.2c0 0.4 0.1 0.7 0.4 1.1 0.2 0.3 0.4 0.4 0.7 0.5l0.4-0.4c-0.5 0-0.8-0.3-0.7-1v-0.9-0.7c-0.1-0.2-0.2-0.4-0.3-0.5s-0.1-0.2-0.2-0.3c-0.1 0-0.1-0.1-0.2-0.1s-0.4-0.7-0.8-1.9c-0.1-0.2-0.1-0.4-0.2-0.7-0.1-0.4-0.3-0.8-0.4-1.3h0.8c0.6 2.2 1.1 3.4 1.4 3.5 0.4 0.2 0.5 0.4 0.5 0.6s0 0.7 0.2 1.4c0.5-0.1 0.7-0.6 0.8-1.3s-0.1-1.2-0.6-1.6c-0.6-0.3-0.9-0.6-0.9-0.9-0.2-0.4 0-0.7 0.5-0.8 0.3-0.2-0.4-0.8-2.1-1.9-0.9-0.6-1.1-1.1-0.8-1.6 0.1-0.2 0.4-0.2 0.7 0 0.4 0.2 0.6 0.3 0.7 0.2 0.2-0.4 0-0.6-0.4-0.8-0.5-0.1-0.7-0.3-0.7-0.5v-1.6c0.1-0.3 0-0.6-0.1-1-0.3-0.4-0.8-0.4-1.6 0.1 0.2-0.4 0.2-0.9 0.1-1.3s-0.3-0.8-0.6-1.2l-0.4-1.2c-0.1-0.4 0.1-0.7 0.7-0.9-0.2-0.8-0.2-1.4 0-1.7 0.2-0.4 0.3-0.7 0.4-0.9s0.3-0.3 0.7-0.1 1 0.9 1.9 2.1c0.4-0.5 0.8-0.3 1.2 0.5 0.5 0.7 0.6 1.6 0.6 2.6 1-0.5 1.3-0.2 1 1.1 0.4 0.9 0.7 1.5 0.8 2s0 0.9-0.2 1.3-0.4 0.7-0.4 1c0 0.2 0.1 0.2 0.3 0s0.5-0.4 1-0.6c0.3 0.7 0.5 1.2 0.4 1.4 0 0.3-0.2 0.6-0.5 0.9-0.4 0.3-0.6 0.7-0.6 1.2 0 0.2 0.1 0.4 0.4 0.4l0.7-0.2c0.4 0 0.4 0.2 0 0.9s-0.6 1.2-0.8 1.7-0.3 0.9-0.3 1.1c0 0.6-0.1 0.9-0.3 1.1 0.1-0.8 0-1.5-0.1-2.4-0.1-0.8-0.3-1.7-0.5-2.7 0.2-0.2 0.5-0.8 0.9-1.8 0.2-0.5 0.1-0.6-0.1-0.2-0.3 0.8-0.6 1.3-0.9 1.4-0.3-1-0.6-2.1-0.9-3.5 0.4-0.7 0.6-1.5 0.7-2.5 0-0.8 0-0.9-0.2-0.2-0.2 1-0.4 1.8-0.9 2.3-0.3-1.1-0.7-2.1-1.1-3.1 0.1-0.5 0.2-1.2 0.2-1.9s-0.1-0.8-0.2-0.1c0 0.5-0.1 1-0.2 1.4l-0.9-2.2-0.5-1.2c-0.2-0.4-0.2-0.4-0.2 0l0.5 1.6c-0.4-0.4-0.8-0.8-1.1-1s-0.4-0.2-0.2 0c0.6 0.5 1.1 1 1.5 1.6 0.3 0.8 0.7 1.7 1 2.6-1-0.8-1.7-1.3-2.1-1.4-0.5-0.2-0.5-0.1 0 0.3 0.7 0.4 1.5 1.2 2.5 2.3l0.9 2.7c-0.5-0.3-1.1-0.9-1.8-1.7-0.3-0.3-0.3-0.3 0 0.2 0.6 0.9 1.2 1.6 2 2.3l0.6 2.4c-0.6-0.6-1.4-1.2-2.3-1.8-0.4-0.3-0.4-0.2-0.1 0.2 0.8 0.6 1.7 1.5 2.6 2.6 0.3 0.7 0.4 2.1 0.4 4 0 0.5-0.4 0.9-1.1 1.1l-0.2 1.9h-1c-0.5-0.7-0.9-1.3-1.2-1.7s-0.7-1-1.2-1.8-0.9-1.5-1.1-2-0.3-1.1-0.1-1.6v-0.1l-0.3 0.2c0 0.1 0 0.1-0.1 0.2v-0.1l-0.7-2.1c0-0.3 0.1-0.7 0.3-1.1h-0.3c-0.1 0.2-0.1 0.5-0.2 0.7l-0.3-0.6-0.9-2.1c0-0.5 0.3-1.4 0.9-2.8 0.3-0.7 0.3-0.7-0.2 0.1-0.4 0.8-0.7 1.5-0.9 2.2-0.1-0.5-0.2-0.9-0.3-1.3l-0.3 0.3c0.1 0.3 0.2 0.7 0.3 1-0.2-0.2-0.5-0.4-0.7-0.6l-0.1 0.1c0.4 0.3 0.7 0.5 0.9 0.8 0.3 0.7 0.6 1.4 0.9 2-0.3-0.2-0.7-0.4-1.2-0.6 0 0.1 0.1 0.2 0.1 0.3 0.4 0.2 0.8 0.5 1 0.7l0.3 0.3 0.8 2.1c-0.3 0-0.7-0.4-1.1-1.3-0.4-0.7-1.4-1.4-2.9-2.1-0.3-0.1-0.5-0.4-0.4-0.8 0.1-0.3 0.3-0.4 0.9-0.3-0.2-0.4-0.3-0.8-0.6-1.1l-0.3-0.5c-0.2-1 0.1-1.4 1-1.4zm3.2 18.8v-0.2 0.1c-0.2 0.2-0.3 0.5-0.3 0.9 0.1 1.3 0.2 2 0.3 2 0.2 0 0.3-0.1 0.6-0.3 0.2-0.2 0.4-0.3 0.6-0.2 0.1 0 0.2 0.3 0.3 0.8v0.4c0 0.7 0.1 0.8 0.2 0.2s0.3-0.8 0.6-0.8 0.3 0.8 0.2 2.3c-1 0.9-1.7 1.7-2.2 2.3-0.2-0.7-0.2-1.1 0-1.4 0.1-0.3 0.3-0.5 0.4-0.9l0.3-0.9c0-0.1 0-0.1 0.1-0.2h-0.1v0.1c-0.2 0.3-0.3 0.6-0.4 0.8s-0.3 0.5-0.4 0.7c0-0.3-0.2-0.9-0.4-1.7h-0.3c0.2 1.1 0.3 2.1 0.4 3.1-0.4-0.5-0.9-0.9-1.3-1.2l-0.3-0.3c0 0.1-0.1 0.2-0.1 0.2l0.5 0.5c0.6 0.6 1 0.9 1.1 1.1s0.2 0.3 0.2 0.5c-0.2 0.3-0.5 0.6-0.8 1-0.1 0-0.1-0.1-0.2-0.2s-0.1-0.2-0.2-0.4c0-0.2-0.1-0.4-0.3-0.5-0.1-0.1-0.6-0.5-1.3-1.1-0.6-0.6-0.9-1.1-0.6-1.6-0.2-0.2-0.3-0.5-0.5-0.8-0.1-0.3-0.1-0.6 0.1-0.9s0.7-0.2 1.4 0.4c0.1-0.4 0.1-0.9 0-1.2-0.1-0.4-0.3-0.8-0.5-1.2-0.3-0.6-0.7-1.2-1-1.6-0.2-0.3-0.2-0.6-0.3-0.7 0-0.1 0-0.2 0.1-0.2 0.2-0.1 0.4 0 0.7 0.3 0.6-0.7 1.1-0.9 1.3-0.6s0.4 0.8 0.5 1.5 0.1 1.4 0 2.2l-0.2 0.2 0.2 0.2c0 0.2 0 0.7-0.2 1.8 0 0.2 0.1 0.4 0.2 0.6 0-0.3-0.1-0.5 0-0.7 0-0.1 0.1-0.4 0.3-0.9 0.1-0.5 0.2-0.8 0.2-0.8 0-0.1 0-0.1-0.2-0.1 0.2-0.1 0.3-0.2 0.3-0.3 0.1-0.1 0.1-0.3 0-0.4 0-0.1-0.1-0.5-0.1-1.2s-0.1-1.2-0.2-1.5c-0.1-0.4-0.2-0.6-0.2-0.8s-0.2-0.3-0.5-0.3-0.7 0.3-1.2 0.9c0.2-1.1 0.5-1.9 0.7-2.2 0.3-0.4 0.5-0.5 0.8-0.3s0.4 0.3 0.5 0.5 0.2 0.2 0.4-0.1c0.2-0.2 0.3-0.3 0.4-0.3 0.1 0.1 0.2 0.2 0.3 0.5 0.1 0.2 0.2 0.5 0.3 0.7 0 0.3 0.1 0.7 0.1 1.4v0.2c0.1-0.6 0.2-1.2 0.2-1.8l2.2-0.5v-2.7c-0.1-0.1-0.1-0.2-0.2-0.3l-2.1-0.4c-0.1-1-0.2-2.1-0.5-3.1l0.7-0.4c0.4 1.4 1.1 2.7 1.8 3.9h0.2v0.3c0.2 0.3 0.3 0.5 0.5 0.8 0 0.1 1 1.1 1.4 2.1-0.1 0.6-0.1 1.2-0.1 1.2-0.1 1.3-0.4 2.4-0.7 3.4-1.1-0.5-1.3 0.2-1.5 0.9 0 0-0.5-0.1-0.6 0.1 0-0.1 0-0.2-0.1-0.3-0.2-0.3-0.7-0.5-0.9-0.3l-0.6 0.4c-0.1 0.1-0.1-0.4-0.2-0.7 0-0.2-0.1-0.9 0.1-1.2l0.1-0.1v-0.7zm-4.3 11.2c-0.3 0.3-0.6 0.7-0.7 0.9l0.2 1.4c0.1 0.6-0.2 1.3-1 2-0.7 0.7-1.2 1.4-1.5 2-0.1 0.5-0.6 1-1.5 1.5 0-0.2-0.3-0.4-0.6-0.7-0.1-0.1-0.2-0.1-0.3-0.1-0.9 0.2-2.7 1-5.3 2.3-0.5 0.2-1.1 0.9-2 2.1h-1.6c-0.4-0.2-0.9-0.6-1.3-1-0.3-0.3-0.9-0.2-1.8 0.3-0.8-0.2-1.6 0-2.4 0.5-0.5 0.2-0.9 0.2-1.1 0.1l-1.9-2.1c-3.9-1.7-6.1-2.4-6.5-2.2s-0.7 0.6-0.9 1c-0.4-0.2-1-0.7-1.8-1.5l-1.2-1.4c-0.9-1-1.3-1.9-1.1-2.8l0.2-1.2c0-0.2 0-0.3-0.1-0.4-0.3-0.3-0.8-0.5-1.1-0.6-0.1 0-0.2-0.1-0.4 0.6 0 0.2-1.2-1.7-1.3-1.8l0.1-0.1c0.1 0.2 0.2 0.3 0.3 0.4l2.1-0.9c0.7 0.8 1.5 1.5 2.2 2.2l-0.9 2.1c0.4 0.3 2 1.5 2.4 1.7l1.7-1.5c0.9 0.5 1.8 1 2.8 1.4l-0.3 2.3c0.5 0.2 2.3 0.8 2.8 0.9l1.1-2c1 0.2 2.1 0.4 3.1 0.5l0.5 2.3h2.9l0.4-2.2c1-0.1 2.1-0.3 3.1-0.5l1.1 2c0.5-0.1 2.4-0.7 2.8-0.9l-0.3-2.3c1-0.4 1.9-0.9 2.8-1.4l1.7 1.5c0.4-0.3 2-1.4 2.4-1.7l-1-2.1c0.8-0.7 1.5-1.4 2.2-2.2l2.1 0.9c0.2-0.3 0.8-1 1.2-1.7l0.1 0.1c-0.2 0.3-1.5 2.4-1.5 2.4 0.3 0.1-0.6-0.4-0.9-0.1zm1.2 0.7c-0.1 0.3-0.2 0.8-0.5 0.8s-0.8-0.3-0.8-0.7 0.3-0.6 0.6-0.6 0.8 0.2 0.7 0.5zm-9.4 10.2c-0.1-0.4 0-0.8 0.5-1.1 0.4-0.3 0.9-0.4 1.4-0.4 0.2 0 0.2 0.4 0 1.1-0.2 0.4-0.9 0.8-2.3 1.3l-1.3-0.2 1.4-0.8 0.3 0.5h0.2l-0.2-0.4zm1.7-2.1c-0.3 0-0.8 0.1-1.4 0.3s-0.9 0.6-0.9 1c-0.1 0.3-0.2 0.5-0.4 0.6-0.6 0.3-1.1 0.6-1.6 0.8l-1.2-0.1 0.6-0.9c0.3-0.4 0.7-0.7 1.2-1 2.2-1.1 3.7-1.7 4.4-1.9 0.1-0.1 0.2 0 0.3 0.1l0.3 0.4-0.4 0.3c-0.2 0.3-0.5 0.4-0.9 0.4zm-21.3-0.9c-0.4-0.2-0.8-0.3-1-0.2-0.2 0-0.4 0.3-0.6 0.8l-0.1-0.1c0.1-0.4 0.3-0.7 0.5-0.8s0.5-0.1 0.8 0.1l1.9 0.9 3.2 1.2c0.8 0.8 1.3 1.4 1.4 1.7-0.7 0.1-1.4 0.1-2.1 0.2l-1.7-1.2c-0.7-0.8-1.2-1.4-1.5-1.8-0.2-0.3-0.5-0.6-0.8-0.8zm0.6 1.4c-0.4 0.2-0.7 0.2-1.1 0l-0.6-0.5c0.2-0.5 0.5-0.7 0.8-0.5l0.6 0.5 0.3 0.5zm-9.3-24.7c-0.4 2.2-0.7 4.9-0.7 8.3v1.2 1 1 2 0.1l-0.5-0.6v-0.3c-0.1-0.1-0.2-0.2-0.2-0.3l0.1-0.2c-0.2-1.4-0.3-2.8-0.3-4.3v-0.7c0.1-1.5 0.3-3.1 0.7-4.8 0.5-2.2 1.1-3.3 1.6-3.4 0.3 0.8 0.5 2.1 0.7 4.2 0.2 2 0.2 3.9 0 5.5-0.2 2.1-0.6 3.5-1 4.2l-0.5 1.1v-3-0.9-0.1c0-1 0.1-2.4 0.1-4 0-1.7 0.1-3.6 0.3-5.7-0.1-0.5-0.2-0.6-0.3-0.3zm-2.1 5.4c-0.5 0.9-1 1.8-1.4 2.7-0.5 1.1-0.9 2.1-1.2 3.2-0.2 0.6-0.3 1.3-0.4 2.1-0.1-1.1 0.1-2.6 0.5-4.5 0.1-0.5 0.3-1.1 0.5-1.6 0.5-1.4 1.3-2.8 2.4-4.3-0.2 1.1-0.4 1.9-0.4 2.4zm0.1 6.8-0.9-1.1 0.6-1.6c0 0.9 0.1 1.8 0.3 2.7zm-3.9-7.4c-0.3-0.3-0.6-1.4-1-3.5 0-0.5 0.2-1.4 0.7-2.5 0.4-1.1 1.1-2.5 2-4 0.1-0.1 0.5-0.5 0.6-0.5s0.3-0.2 0.6-0.3l0.3 0.2c-0.2 1-0.4 2-0.5 3.1l-2.2 0.5v2.9l2.2 0.5c0.1 0.9 0.2 1.9 0.4 2.8 0 0.1 0 0.2 0.1 0.3l-0.4 0.2-1.6 0.9c0.1 0.2 0.3 0.8 0.4 1.4-0.3 0.7-0.5 1.3-0.6 2-0.2-0.4-0.4-0.9-0.6-1.6s-0.3-1.2-0.2-1.4c0.2-0.4 0.2-0.7-0.2-1zm7.6-1.6-0.1 0.1-0.2 0.3v-0.8l0.1-0.1 0.5-0.6c0.4-0.4 0.6-0.2 0.5 0.6 0 0.7-0.2 1.5-0.3 2.4-0.1 0.6-0.3 1.2-0.4 1.9 0-1.4-0.1-2.4-0.2-2.9l0.2-0.5 0.2-0.5c-0.1-0.2-0.2-0.3-0.3 0.1zm0.4-2.1-0.7 1.1c0-0.4-0.1-0.8-0.2-1.1 0.2-0.2 0.5-0.3 0.7-0.4 0.4-0.2 0.4 0 0.2 0.4zm9.4 14.3 6.6-8.4 0.9-0.6 0.8 0.6 6.5 8.5c-4.6 2.1-10 2.1-14.8-0.1zm34.6-14.8h0.8c-0.4 2-0.8 4.1-1.1 5.5l-0.6-0.3c0.5-1.9 0.7-4 0.9-5.2zm-9.2-3.4c0.2 1.6 0.1 3.3-0.2 4.9-0.4 0-0.8 0.2-0.7 0.8 0 0.3 0.2 0.6 0.3 1-0.7 2.7-2.1 5.3-4.1 7.5l-5.9-8.9-0.3-1 0.8-0.6 10.1-3.7zm-2.2-6.8-10.3 2.9h-1.1l-0.3-0.9-0.3-10.7c5 1 9.4 4.1 12 8.7zm-19.1-8.8-0.5 10.7-0.3 1h-1l-10.3-3c2.6-4.5 6.9-7.7 12.1-8.7zm-0.6 12.2h0.2l0.1-0.2 3.8-11 3.9 11 0.1 0.2h0.2l11.6 0.3-9.3 7.1-0.1 0.1 0.1 0.2 3.3 11.1-9.6-6.6-0.1-0.1-0.1 0.1-9.6 6.6 3.3-11.2 0.1-0.2-0.1-0.1-9.2-7 11.4-0.3zm-3.7 7 0.8 0.6-0.3 1-6.1 8.8c-1.4-1.6-2.5-3.4-3.3-5.3 0.3-1.5 0.6-3.3 0.5-3.9-0.1-0.4-0.2-0.6-0.3-0.6s-0.2 0-0.3 0.1l0.2-0.5c0.1-0.3 0.1-0.6 0-0.7s-0.8-0.1-1.4 0.2c-0.1-1.1-0.1-2.3 0.1-3.5l10.1 3.8zm-16.9-8.7 0.8-2.5 0.7-0.2c-0.5 1-1 1.9-1.2 2.7h-0.3zm-1 2.8 0.2-1.1 0.6-0.1-0.8 2.1-0.5 1.8 0.2-1.6 0.3-1.1zm0.6-5.9-1 2.8c0.2-1.2 0.4-2.2 0.7-3.2l0.3 0.4zm0.9-4c1-1.7 2.3-4.1 3.7-7.2 0.4-0.9 1.1-1.9 1.9-3.1 0.3-0.6 0.1-0.6-0.4 0-1.3 1.6-2.8 4.1-4.4 7.5l0.7-1.9c0.1-0.4 0.5-1.4 1.2-2.8 0.7-1.5 1.4-2.6 2.1-3.5s1.1-1.4 1.4-1.7c0.9-0.8 1.5-1.2 1.6-1.1s0.2 0.3 0.1 0.5l-1.9 4.9c-1.2 2.4-2.9 4.9-4.9 7.6-0.9 0.9-1.4 1.5-1.6 1.8s-0.4 0.5-0.5 0.7l0.2-0.7 0.8-1zm-1.5 21.3c0-0.5-0.1-0.8-0.2-1-0.1-0.1-0.2-0.4-0.4-0.7-0.1-0.4-0.3-0.9-0.5-1.6s-0.4-1.3-0.5-1.9c-0.1-0.1-0.3-0.1-0.4-0.2-0.5-0.3-0.9-0.8-1.1-1.4-0.3-0.7-0.6-1.7-0.9-2.9s-0.4-2.6-0.3-4.3c0.1-2 0.4-3.9 0.9-5.8 0.6-2.6 2-5.1 4-7.4 0.4-0.5 0.7-0.6 0.8-0.3 0.1 0.5 0.1 1 0.1 1.5s0 1-0.1 1.5c-0.1 1-0.4 2.1-0.8 3.3-1 3.4-1.6 5.7-1.8 6.8-0.4 1.4-0.8 3.2-1.3 5.4-0.1-0.4-0.1-1-0.1-1.7 0-1.2 0.2-2.9 0.5-5 0.5-3.4 1-5.9 1.7-7.3 0.3-0.8 0.3-0.9 0-0.4-1.6 2.7-2.5 6.7-2.8 12-0.1 1.8 0.1 3.2 0.3 4 0.3 0.8 0.6 1.3 0.9 1.4 0.2 0.1 0.4 0.1 0.6 0 0.2-1 0.3-1.8 0.3-2.4 0.1-0.6 0.1-1.3 0.2-2.1s0.3-1.5 0.5-2l0.2 0.2c-0.3 1.2-0.4 2-0.4 2.5s0 0.9-0.1 1.4-0.1 1.4-0.1 2.7c0.3-1.1 0.6-2.1 1-3l1.2-3.5 1.1-2.6c0.2-0.5 0.3-1 0.4-1.2h0.1c0.6-1.2 1.4-2.5 2.4-3.9l-0.3-0.3c0.3-0.4 1.4-2 1.7-2.4l0.5 0.2c0.6-0.6 1.2-0.9 1.7-1 0.2 0.3 0.2 0.8 0 1.6s-0.5 1.6-0.9 2.5c-1.1 2-2.1 3.6-3.1 4.8-0.6 0.7-1.2 1.4-1.7 1.9l-0.1 0.1v-0.1l2-3.2 0.1-0.1 0.6-1 1.3-2.3c0.2-0.4 0.4-0.7 0.4-0.9s0-0.2-0.2 0c-0.3 0.5-0.6 0.9-0.9 1.4-0.7 1.1-1.4 2.1-1.9 2.9-0.9 1.4-1.5 2.4-1.8 3 0 0 0 0.1-0.1 0.1-0.5 1-1 2-1.5 2.8-0.5 0.9-0.8 1.6-1 2.1s-0.5 1.4-1 2.6c0 0.2 0.1 0.9 0.5 2 0.3 1.1 0.6 1.8 0.8 2s0.2 0.4 0.1 0.6 0 0.6 0.2 1.2c0.1 0.6 0.4 1.5 0.9 2.6l-0.1 0.4c-0.7-1.1-1.2-2.3-1.6-3.6zm-1.3-11.6c-0.3 2.1-0.5 3.7-0.7 4.9l-0.2-0.3c0-0.3 0.2-1.8 0.9-4.6zm12.4 29.3-0.5-0.7c-0.2-0.2-0.4-0.2-0.6-0.1-0.3 0.1-0.5-0.1-0.6-0.5-0.7 0.4-1.4 0.3-2.1-0.5l-1.3-1.6-1.2-2.1-0.4-0.3c-0.3 0.2-0.6 0.2-0.9 0.1-0.5-0.1-1-0.4-1.6-1l-0.4-0.4c-0.4-0.6-1.1-1.8-2-3.6-1.6-3-2.7-5.3-3.2-6.8-0.4-1.3-0.7-2.1-0.8-2.4s-0.2-0.3-0.2-0.2v0.2c0 0.1 0.1 0.3 0.1 0.6 0.1 0.4 0.2 0.9 0.5 1.6 0.4 1.1 1 2.8 2 5 0.9 1.8 1.7 3.4 2.5 4.8-1.9-2.1-3.3-4-4.2-5.8s-1.4-3.5-1.7-5c-0.1-0.5-0.2-1.4-0.2-2.5v-0.8c0-0.7 0-1 0.1-1.1 0.1-0.4 0.3-0.6 0.5-0.5 0.2 0 0.5 0.4 1.1 1.1 0.2 0.2 0.3 0.5 0.5 0.9 0.5 0.9 1.1 2.3 1.7 4.1 1 2.6 1.6 4.3 1.8 5.1s0.4 1.5 0.7 2.1c0.2 0.6 0.5 1.2 0.8 1.8 0.5 0.9 0.9 1.6 1.4 1.9 0.6 0.4 1.1 0.5 1.4 0.2l-1.4-2.5c-0.1-0.1-0.3-0.1-0.4 0h-0.1-0.1-0.2l-0.1-0.1-0.1-0.1c0-0.1 0-0.1-0.1-0.2v-0.1-0.5c0-0.5 0.2-1.3 0.5-2.4 0.4-1.2 0.8-2.4 1.4-3.6 0.3-0.7 0.7-1.4 1.1-2.1-0.1 0.8-0.2 1.5-0.2 2v0.1c-1 2.2-1.7 3.9-2.1 5.2-0.2 1-0.2 1.4 0 1.4l0.3-0.2-0.2-0.5 0.2-0.4 0.5 0.8 0.3-0.2 0.2 0.4-0.2 0.3 1.7 2.5 0.4-0.3 0.3 0.3c-0.5 0.5-0.7 0.9-0.6 1 0.5 0.9 0.9 1.5 1.3 2.1 0.8 1.1 1.4 1.5 1.9 1 0.2-0.1 0.4-0.1 0.6 0.1s0.5 0.6 0.8 1.2v-0.9l-1.4-1.4-0.8-1.6c-0.7-1-1.2-1.7-1.4-2.2-0.3-0.5-0.6-1.1-1.1-1.9-0.4-0.7-1-1.5-1.6-2.5l0.1-0.4 1.2 1.5c1.1 1.4 1.9 2.5 2.4 3.3 0.5 0.7 0.7 0.9 0.8 0.5l0.2-0.7 0.4 0.2-0.2 1.5-0.1 0.5c0 0.4 0 0.6 0.2 0.6 0.2 0.1 0.3 0.3 0.5 0.7 0.1 0.3 0.5 0.8 1.2 1.6s1.5 1.5 2.3 2.1 1.5 1 2 1.4 0.8 0.7 0.8 1l0.7 0.2-0.2-0.9 0.5-0.1c0.2 0.2 0.4 0.4 0.6 0.9 0.7 0.5 1.3 0.9 1.8 1.2l-1.7 0.3-2.9-1.8-3.2-1.9zm-7.2-9.2 0.2-0.2 1.1 1.8-0.1 0.2-1.2-1.8zm1.9 3.7 0.4-0.5 1 1.4 0.6 1 0.2 0.6c-0.4-0.2-0.7-0.5-0.9-0.8l-0.6-0.8-0.7-0.9zm9 9.4-2.3 0.4 0.6-1.6 1.7 1.2zm5.5 7.3c-1.1 1.1-2.3 2.1-3.7 3l-0.5-0.2c0.8-0.5 1.9-1.3 3.4-2.4l0.7-0.7h-0.3c-0.5 0.4-1.1 0.9-1.7 1.3-0.6 0.5-1.4 0.9-2.2 1.3l-1.1 0.6 0.2 0.2 0.9 0.1c0.5 0.3 0.7 0.6 0.6 0.9-0.3 0.4-0.7 0.4-1.2 0.2l-0.9-0.5c-0.3-0.3-0.7-0.6-1-0.7l-0.4-0.3 0.2-0.4 1.2 0.5h0.4l-0.2-0.7 1.4-0.9c0.4-0.1 0.5-0.4 0.5-0.7l0.1-0.7c0.6 0.1 1.2 0 2-0.3 0.7-0.3 1.4-0.5 2-0.6 0.1 0.4 0 0.7-0.4 1zm-0.9-1.6c-1.4 0.3-2.6 0.6-3.7 0.8-2.7 0.5-5.4 0.9-8.1 1.2-0.7-0.2-2.6-1.2-5.8-3-2.3-1.4-3.9-2.5-4.8-3.4-1-1.1-1.5-1.8-1.3-2 0.7-1.1 1.1-2.1 1.4-3 0.1-0.4 0.1-0.6 0.1-0.9-0.3-0.9-0.1-1.3 0.6-1.4 1.7-0.1 2.9-0.1 3.5-0.1 0.3 0 0.4-0.1 0.5-0.2l0.6-1.2-0.4-0.2-0.5 0.8v-0.9c0-0.1 0.1-0.2 0.2-0.1 1.1 0.3 1.6 0.6 1.5 1.1-0.3 0.6-0.5 1.2-0.5 2v2c-1.4-0.9-2.9-1.7-4.4-2.4 0.2 0 0.4 0 0.6-0.1 0.2 0 0.4-0.1 0.5-0.3s-0.1-0.2-0.4-0.3c-0.8 0-1.3 0.1-1.6 0.2-0.2 0.2-0.1 0.4 0.1 0.7 1.9 0.9 3.5 1.9 5 2.8 2.3 1.4 4 2.6 5.3 3.5 1.2 0 2.9-0.2 5.1-0.5l3.3-0.6c1.4-0.3 2.8-0.5 4.3-0.7 0.5-0.1 1.2-0.1 2.1-0.2 0.8 0 1.6-0.1 2.3-0.2 0.7 1.3 1.1 2.4 1.2 3.3 0.1 0.5 0 0.8-0.2 0.8-2.9 1.5-5.2 2.2-6.5 2.5zm10-1.3-0.2-0.6-1.1 1.3-0.9 0.5c-0.4 0.3-0.8 0.5-1.2 0.4l-1.4-0.7 0.7-0.4 0.2 0.2c-0.1 0.4 0 0.3 0.5-0.2l1.2-1.2c0.1-0.7-0.1-1.6-0.5-2.7s-0.7-1.8-0.9-2.1c-0.1-0.2-0.7-0.3-1.8-0.2 0.7-0.3 1.5-0.4 2.4-0.1l0.9 0.4 0.5-0.2-0.1-0.1-0.9-0.4h0.5l0.4 0.4 0.1 0.1 0.3 0.3c1.3 1.4 2.1 2.4 2.2 2.9 0.2 0.5 0.2 1 0.1 1.5-0.5 0.9-0.8 1.1-1 0.9zm4.2 5.5c-0.2-0.2-0.3-0.4-0.2-0.5l0.8 0.7c-0.1 0.1-0.3 0-0.6-0.2zm5.1 0.1 0.4 0.1-0.2 0.2-1 0.3c-0.4 0.4-1 0.6-1.6 0.8l-0.7-0.1-0.2-0.5c0.2-0.2 0.4-0.4 0.6-0.5s0.6-0.2 1-0.3l0.9 0.2 0.8-0.2zm-1.5-0.4c-0.7 0-1.1 0.1-1.3 0.2h-0.5c-0.8-0.5-1.4-1-1.8-1.4l-1.8-1.4c0.3-0.2 1.1-0.1 2.2 0.2l3.2 2.4zm5.6-7.9c0.7 0.1 1.3 0 1.7-0.1 0.7-0.3 2.1-1.3 4.3-3.2 2.1-1.6 3.9-2.7 5.3-3.3 0.4-0.3 0.5-0.5 0.1-0.6s-1-0.2-1.8-0.2c-0.3 0.2-0.2 0.4 0.1 0.5 0.4 0 0.6 0 0.8 0.1-1.7 0.9-3.2 1.8-4.4 2.7 0.1-0.6 0.2-1.6 0.3-3.1 0-0.5-0.2-0.9-0.5-1.2-0.2-0.3 0.1-0.5 0.7-0.7l0.5-0.2v0.9l-0.7-0.2 0.1 0.4c0.2 0.3 0.4 0.5 0.9 0.6l2.1 0.1h0.9c1.1 0 1.6 0.3 1.6 0.8s0 1 0.1 1.4c0.2 1.1 0.6 2.2 1.3 3.2-0.2 0.5-0.5 1-1 1.6l-2 1.3c-1.7 1.2-4.1 2.9-7.1 4.9-2.1 0.1-4.7-0.1-7.7-0.5-2.2-0.3-4.6-0.8-7.5-1.6l-0.6-0.2 0.3-0.3c0.4-0.6 0.7-1 0.7-1.2s0-0.6-0.2-1.3-0.7-1.5-1.5-2.4v-0.2l0.6-0.1c1.6 0.1 3 0.3 4.3 0.6s2.8 0.6 4.5 0.9c1.9 0.3 3.1 0.5 3.8 0.6zm-2.9-1.1c-0.7-0.1-1.8-0.3-3.3-0.6l1.4-0.5c0.7 0.2 1.1 0 1.2-0.5 0.1 0.7 0.4 1.2 0.7 1.6zm8.1-11.5c-0.5 0.6-0.7 1.2-0.5 1.8-0.7 0.4-1.4 1-2.1 1.7-0.7 0.8-1.2 1.4-1.5 1.9s-0.7 0.8-1.1 0.9c-0.4 0.2-1 0.1-1.5-0.3l-0.2 1-2.6 1.6-1.3 0.5c0.1-0.3 0.2-0.7 0.2-1.3l0.5-0.4c1.8-0.9 2.8-1.8 3.1-2.6 0.4-0.6 0.8-1.2 1.2-1.6s0.7-1 0.9-1.6v-0.9l-0.1-1c0.4 0.5 0.8 0.6 1.1 0.3 0.5-1 1.1-2 1.8-2.8 0.6-0.9 1.3-1.7 2-2.4 0.7-0.8 1.3-1.4 1.8-1.9v1c-1.6 1.9-2.5 3.2-2.9 3.9-1.3 2-2.2 3.6-2.7 4.8-0.3 0.7-0.7 1.2-1.2 1.6-0.4 0.2-0.7 0.4-0.9 0.7s-0.1 0.4 0.3 0.3c0.3-0.3 0.5-0.5 0.9-0.6 0.6-0.3 1.8-1.6 3.7-4.1v-1.4l0.4-0.7c0 0.8 0 1.2 0.2 1.2 0.1 0.1 0.4-0.1 0.6-0.6 0.3-0.5 0.9-1.9 2-4.2-0.2 0.7-0.2 1.3 0 1.8-0.6 0.4-0.8 1.2-0.5 2.3l-1.6 1.1zm8.8-8.6c-0.1 0.7-0.3 1.2-0.6 1.7-1.1 1.2-1.5 2-1.3 2.2 0.3 0.5 0.2 1.1-0.2 1.7-0.6 0.7-1.3 1.5-2.3 2.3 0.3 0.5 0.1 1-0.6 1.3-0.8 0.4-1.6 0.8-2.5 1.1 1.7-1.3 2.7-2.6 3.1-4.1 0.5-0.5 1-0.8 1.4-1s0.4-0.3 0.2-0.3c-0.5 0.2-1 0.5-1.5 0.9 0.5-1 0.8-2.1 1-3.2 1-1 1.7-1.8 1.9-2.3 0.4-0.5 0.4-0.7 0-0.4-0.4 0.6-1 1.3-1.8 2.1 0.4-1.1 0.7-2.4 1-3.7 0.1-0.8 0.1-0.9-0.1-0.4l-0.4 1.4c-0.2-0.5-0.4-1-0.6-1.2l0.5 1.6c-0.1 0.7-0.4 1.6-0.7 2.8-0.4-1-0.8-2-1.4-2.8-0.5-0.7-0.6-0.7-0.3 0 0.6 0.9 1.1 2 1.5 3.4-0.3 1.2-0.7 2.3-1.1 3.1-0.3-0.5-0.6-0.8-1-1-0.3-0.1-0.3-0.1 0 0.2s0.6 0.7 0.8 1c-0.3 0.8-0.7 1.4-1.2 2s-1 1.1-1.5 1.4c0.6-1 0.8-2 0.6-3.2 0-0.2 0.2-0.4 0.5-0.5s0.4-0.3 0.3-0.4c-0.3-0.6-0.4-1-0.4-1.4 0.2-0.1 0.5-0.1 0.9 0 0.3-0.2 0.3-0.6-0.1-1s-0.7-1-0.8-1.9c0-0.5 0.3-0.6 0.9-0.5 0.3 0 0.3-0.4 0.1-1l-0.7-0.9c-0.5-1-0.3-1.4 0.6-1.1l1 0.6c0.7 0.3 1-0.2 1-1.4 0-0.3 0.2-0.3 0.6-0.2s0.8-0.2 1.1-0.9c0.3-0.4 0.6 0 0.8 1-0.1 1.4 0.3 2 1 1.9 0.4 0.1 0.4 0.4 0.3 1.1zm1.2-3.4c0 0.3 0 0.5-0.2 0.6-0.1 0.2-0.5 0.3-0.9 0.4l-0.4-0.8c0-0.6-0.2-1.2-0.6-1.8 0.2-0.2 0.5-0.3 0.9-0.5 0.3-0.1 0.2-0.2-0.2-0.1s-0.7 0.2-1 0.3h-0.1c0.2-0.8 0.6-1.6 1.1-2.4 0.1-0.3 0.1-0.3-0.2 0-0.4 0.6-0.8 1.3-1.2 2-0.2-0.2-0.3-0.4-0.4-0.9s-0.2-0.5-0.2 0c0.1 0.6 0.2 1 0.4 1.3-0.6 0.9-1 1.2-1.4 1.1 0.2-1.2 0.5-2.6 0.8-3.9 0.6-0.6 1.1-0.8 1.6-0.6 0.6-0.5 1.2-0.6 1.6-0.3 0.2 0.4 0.3 0.8 0.3 1.1 0 0.4-0.2 0.8-0.4 1.3 0.5 0 0.8 0.2 0.8 0.6-0.2 0.9-0.6 1.5-1.2 1.9 0.5 0.3 0.8 0.5 0.9 0.7z"/>
 </g>
</svg>
