<svg xmlns="http://www.w3.org/2000/svg" height="78.24" width="70.08" viewBox="0 0 65.700006 73.35"><path fill="#fff" d="M64.896 34.4c.2-1.4.1-2.3-.4-2.7s-1.2-.2-1.9.4c-.4-.2-1 0-1.8.7.1-.3.1-.6 0-.9.7-.3 1.1-.7 1.3-1 .2-.4.3-1 .3-1.8.1-.5.5-1.4 1.4-2.7.6-1.3.2-1.7-1.2-1.3.8-.7 1.1-1.3 1.1-1.8.1-.5-.1-1.1-.6-1.8-.2-.4-.5-.5-.8-.2.1-.3.2-.6.2-.9 0-.4-.2-1.1-.7-2.3-.1-1.5-.4-2.2-1.1-1.9-.1-.8-.4-1.6-.8-2.3-.6-.9-1.1-1.2-1.5-.7-1-1.5-2-2.1-2.8-1.9 0-.6-.2-1.2-.7-1.8-.2-1-.5-1.7-.9-2.1-.5-.2-.8.1-1 .8-.1-.6-.3-1.2-.5-1.8-.3-.6-.7-.9-1.4-1-.2 0-.5 0-.7.1-.4-.3-.8-.4-1.1-.4-.9-.9-1.7-1-2.4-.2l-.1-.8c-.3-1-.8-1.2-1.6-.6-1.3-1.3-2.4-2.2-3.3-2.6-.8-.3-1.2-.2-1.5.2-.4-.4-.8-.6-1.2-.7s-.9-.2-1.2-.4c-.6 0-.9.3-.8 1-.9.1-1.6.2-1.9.5-.4.3-.4.7-.3 1.1.2.5.5.9 1.1 1.2-.2.2-.2.5-.2.9s.4.7 1.2 1c.6.2 1.2.2 1.8 0-.1.6.1 1 .6 1.1.8.8 1.7 1 2.8.6l-.1.7 1.5.6c.1.7.4 1.2 1 1.6l.6.3c-.1 0-.7.5-.7.6-.1.1-.3.5-.1.8l.3-.3c.2.1.5.4.9.6h1.1c0 .2.1.5.3.7.1.2.4.6.8 1.1s1.2.9 1.9 1.2c0 0-.2.6-.4 1-.1.3-.2.6-.2 1l-.8.4c-.7-.8-1.4-1.5-2.2-2.2l.9-2.1c-.2-.2-.9-.7-1.5-1.1-.3 0-.6 0-.8-.1-.2 0-.4-.1-.4-.2l-1.3 1.2c-.9-.5-1.8-1-2.8-1.4l.3-2.3c-.4-.2-2.3-.8-2.8-.9l-1.1 2c-1-.2-2-.4-3.1-.5l-.5-2.2h-2.9l-.4 2.2c-1 .1-2.1.2-3.1.5l-1.1-2c-.5.1-2.3.7-2.8.9l.3 2.3c-.9.4-1.9.9-2.8 1.4l-1.7-1.5c-.1.1-.4.2-.6.5-.4.8-.9 1.6-1.3 2.3l.5 1c-.4.4-.9.8-1.3 1.2v-1c0 .2.3-.4.8-1.3l-.3-.6-.7 1.3c-1 .1-2 .6-2.9 1.4.5-.8 1-1.7 1.7-2.8.7-1 1.7-2.6 3.1-4.7.2-.4.2-.5 0-.3s-.8.9-1.8 2.2-2.2 3.3-3.9 6c-.4.6-1.2 1.9-2.6 4-.2.3-.4.6-.6 1-.1.1-.5.2-1.2.2l-1.3 3.8c.1.1.4.1 1-.2-.3.5-.6.8-1.2.8l-.3-.2-.2-.6v-.3h.3l1.4-3.5-.8-1 .2-.6c.3.5.5.8.7.9.4-.7.9-1.7 1.6-2.9s1.5-2.4 2.4-3.7v-.3c0-.2.1-.2.3 0l1.9-2.8-1.6 2.8c.3.3.1.5-.3.6-1.7 2.2-2.9 4.4-3.8 6.6l.4.1c.2.1.5 0 .7-.3l2.4-4.2 2.3-4.2c1.1-1.9 2.3-3.4 3.7-4.4.4-.2.7-.3.9-.3.1.1.1.3.1.5v.6c0 .1 0 .3-.1.4-.1.5-.5 1.3-.9 2.4l-.3.6c.3-.2.7-.5 1.1-.8.4-.7.6-1.3.7-1.6l.3-.1.4-.2c1.3-.5 2.4-1.1 3.4-1.5l1.6-.8c1.1-.5 2.1-1.1 3.1-1.9 1-.9 1.6-1.9 1.7-2.8-.2-.2-.7-.4-1.6-.4.5-.5.7-1.1.7-1.6-.3-.5-1.4-.5-3-.2-1.8.4-3.3 1.1-4.6 2.1-1.4.9-2.6 1.9-3.6 3.1-1.1 1.2-1.9 2.5-2.6 3.8l.8-1.8c.4-.9.8-1.9 1.2-3 .1-.5.1-.9 0-1.2-.1-.2-.4-.3-.8-.2s-1.2.6-2.3 1.6c-1.2 1.2-2.3 2.7-3.2 4.5s-1.6 3.2-1.9 4.2c.2-1.2.2-2.2-.1-3-.1-.3-.4-.4-.8-.3-.4.3-.8.7-1.2 1.3s-.8 1.1-1.2 1.7c-.4.5-.8 1.3-1.4 2.3-.5 1-1 2.2-1.4 3.5-.4 1.4-.7 3.1-.9 5.4-.1 1.4 0 3 .3 4.6.4 1.6.8 2.8 1.2 3.6s.8 1.2 1.2 1.4c.2.6.5 1.5.9 2.8.2.6.3 1.1.3 1.4s.1.6.3.7.4.4.5.8c.3 1.2.8 2.4 1.4 3.5-.1.6-.2 1.1-.2 1.7-1.2-3.6-2.3-6.3-3-8.2-1.5-3.4-2.7-4.9-3.5-4.6-.4.2-.7.5-.8 1.1v1.8c0 1 .1 2 .3 3 .8 3.5 2.1 6.3 4 8.6l2.8 3.4c.6.6 1.1 1 1.6 1.3s1 .3 1.4.2c.6 1 1.5 2.1 2.5 3.3.6 1 1.3 1.4 2 1.4.3.6.7.9 1.3.9l.6-.1c.8.8 1.5 1.4 2.2 1.9l-.7 2.1c-1.3.2-2.5.3-3.6.3-1-.7-2.4-1.7-4.3-3l-.1-2.3c0-.8.1-1.5.4-2 .1-.4-.2-.9-.7-1.2-.9-.4-1.5-.6-1.8-.5-.1.1-.2.2-.3.4v1.3l-3.7.1c-.3 0-.6.1-.8.4s-.2.8 0 1.6v.7c-.2.8-.7 1.8-1.4 3-.1.2-.1.5.1.8.2.4.7.9 1.5 1.7.3.3.9.8 1.5 1.2.7.5 1.9 1.2 3.6 2.3 2.1 1.2 4 2.2 5.9 3 .4 0 3-.3 7.8-1.1v.4c-1.4 1-2.3 1.5-2.6 1.3-.5.1-.7.5-.5 1.2.2.3.4.6.9.7l.5.6 1.4.9c.5.2 1.1.2 1.6 0s.8-.6.9-1.2l.2-.2 1.6-1.6 1.1-.9c.9-.2 1.5-.5 1.7-.9.1-.4.2-.7.3-.8l1.4-.9c0-.1.6.1 1.7.7.5.1 1 .1 1.4-.1l1-.6c.9.2 2.5 1.3 4.8 3.4 0 .2.1.5.4.8.2.2.7.4 1.5.6l.6 1 .5.2c.8 0 1.6-.3 2.3-.9l.9-.3c.4-.3.6-.7.6-1l-.4-.3-.7-.2c-.9-.4-1.9-1-2.8-1.8l-.6-.5c2.8.5 6.4.9 10.6 1.2.5.1 1.2-.2 2.1-.8s3.5-2.5 7.9-5.6c.7-.7 1.2-1.5 1.6-2.4-.4-.4-.7-.9-1-1.6s-.5-1.2-.6-1.7c-.1-.4-.1-.8 0-1.2s0-.7-.3-1c-.1-.2-.4-.3-.9-.3-.8-.1-1.8-.1-2.8 0-.5-.1-.8-.2-.9-.3v-.9c.1-.4 0-.6-.4-.5-1.1.3-1.8.6-2.1.9-.3.4-.3.8 0 1.2.3.3.4.6.4.9-.2 1.7-.3 2.9-.4 3.5-1.9 1.5-3.2 2.4-3.9 2.8-.5.2-1.8.1-3.7-.2-.4-.4-.7-1-.9-1.9.7-.4 1.3-.9 2.1-1.4.5-.1.9-.2 1.3-.3.3-.1.5-.4.5-1 .3-.1.6-.4.7-.9l2.3-2.7c.7-.6 1.5-1 2.4-1.1 1-.1 2.4-.7 4.1-1.8.3-.3.3-.7 0-1.2.5-.3 1.3-1.1 2.4-2.4.4-.6.6-1.3.3-2.1 1-1.2 1.6-2.2 1.8-3 .1-.7.1-1.4 0-2.1.5-.3.8-.6 1-.8s.3-.5.3-.9-.1-.7-.4-1c.1-.9.2-1.9-.4-2.7zm-36.3-31.1c0 .5-.3 1-.9 1.6-.9.8-2 1.6-3.4 2.3s-3.1 1.5-5.3 2.5v-.2c2.7-2 5.1-3.6 7.4-4.8.6-.4.6-.5-.1-.3-.8.4-1.6.9-2.6 1.4-1.6 1-3.1 2-4.6 3v-.5c3-2.6 5.4-4.3 7.3-5 .9-.2 1.6-.2 2.2 0zm-8.8.9c1.4-1.2 3.1-2.1 5.1-2.7 1-.3 1.8-.4 2.5-.4.3.1.4.3.3.6l-.9 1.1c-.8.1-1.8.5-3.1 1.3s-2.7 1.8-4.2 3l-.5.4c-.3-.2-.8-.1-1.6.3 2.4-2 4.5-3.5 6.2-4.6 1.1-.6 1.8-1 2-1.2-.6.2-1.4.5-2.4 1.1s-2.8 1.7-5.1 3.5l-2.3 2.1c1.2-1.8 2.6-3.3 4-4.5zm23.1 3.4l.1-.9-.7.2c-.7.2-1.4 0-2.1-.6-.5.1-.7-.1-.6-.5.2-.4.1-.6-.2-.6l-1.1.1c-.7-.1-1.2-.3-1.4-.6s0-.6.3-1c-.7-.3-1.1-.6-1.3-.9s-.1-.6.3-.8 1.1-.2 2.1-.1c-.2-.3-.3-.6-.2-.9 0-.3.7-.1 2 .5l.8.5c.2-.4.6-.5 1.1-.4.6.3 1.2.6 1.7 1s1.1 1 1.8 1.7c.5-.4.9-.3 1.2.2l.1.9c-.6-.5-1.3-.6-2.1-.1l-.5-.2c-.8-.9-1.2-1.6-1.4-2.1-.2-.6-.2-.6-.2-.2 0 .5.3 1.2.9 2-1.1-.4-2-.8-2.5-1.4s-.9-1.1-1.2-1.4c-.3-.5-.4-.5-.3 0 .3.6.7 1.1 1.3 1.6-.4-.2-.8-.4-1.2-.5-.9-.4-1.7-.6-2.3-.6-.3 0-.3.1 0 .2 1 .3 1.7.5 2.2.7s.8.4.9.6c-.7.3-1.5.5-2.3.4h-.7c.1 0 .2.1.5.2.9.1 1.9 0 2.9-.3.7.4 1.5.7 2.5 1-.6.1-1.1.4-1.7.8-.2.3-.1.3.3 0s1-.5 1.9-.6l.7.3c-.1.7.1 1.4.5 2.1l-.4.2-1.7-.5zm4.5 4.1c-1.5 0-1.7 0-1.8-.2s-.1-.3.4-.6l.3-.4c-.8-.4-1.6-.8-1.7-1.9l.7-.3c.3-.4.3-.6 0-.8s-.5-.7-.5-1.4c.3-.6 1-.6 2.1 0 .5-1 1.1-1.2 1.8-.9-.8 0-1.2.3-1.3 1-.1.4-.1.9 0 1.5-.3-.4-.6-.7-.9-.9-.7-.4-.8-.3-.4.1s.8.9 1.2 1.4c-.6.5-1.2.7-1.9.6-.2.1-.2.2.1.2.3.1.7 0 1.1-.1-.1.4.1 1.1.3 1.5.2.3.6.7 1 .9-.3.1-.4.2-.5.3zm.8.8c0-.3.2-.5.8-.5s.7-.2.3-.5c-.8-.3-1.4-.7-1.9-1.3-.3-.4-.3-.8 0-.9l.6-.2.3-.3-.3-1.4c-.1-.7.1-1.2.6-1.5.7-.1 1.4.1 2.1.6 0-.4.3-.5.7-.3.5.1.9 1.1 1.3 2.9l.6.2c.2-.5.4-.7.5-.7.2 0 .4.4.6 1.3.5.5.8 1.2.7 2.3-.3.4-.5 1-.5 1.6l-.3-.7c-.2-.8-.3-1.6-.2-2.5 0-.4-.1-.4-.1 0-.1.8-.1 1.4 0 1.9-.7-.9-1.5-1.7-2.3-2.5-.2-.6-.2-1.2-.2-2-.1-.6-.1-.8-.2-.4 0 .8 0 1.5.1 2.2-.6-.6-1.3-1.5-2.1-2.6-.2-.4-.3-.4-.3-.2.5.9 1 1.7 1.6 2.3.5.6 1 1.1 1.3 1.5-.7-.2-1.3-.3-1.8-.4s-.9-.2-1.4-.4c-.4-.1-.4 0 0 .3.2.2.7.3 1.4.4s1.4.3 2 .7c.3.2.8.7 1.4 1.6l.5 1c-.7-.4-1.5-.7-2.4-.8-.9-.2-1.4-.3-1.6-.4-.7-.3-.8-.3-.2.1.2.2.7.3 1.7.5.9.2 1.9.6 2.7 1.1l.1.2c-.2.2-.3.5-.2.9l.3.8c-.2-.3-.6-.2-1 .4.2-.3.1-.6-.1-.9-.4-.5-1.3-1.1-2.6-1.8l-.2.4c-1.3-.4-2-1-2.3-2zm2.3 6c-.3-.5-.5-.9-.4-1.2V17c0-.4.1-.8.3-1.2.2-.3.3-.6.3-.9.5.3.9.5 1.3.7s.6.6.6 1.1l-.2 1.2c.1.2.3.2.6-.2.3-.5.6-.7.8-.8.3.1.6.4.8.7.3.5.2 1.4-.3 2.7l-.4 1.1c.9-1.2 1.6-1.7 2.1-1.7.2.1.2.4.2.8-.1.4-.1.8 0 1.3.1.4-.1.8-.4 1.1-.4.3-.6.8-.7 1.5.8-.6 1.2-.5 1 .3l-.5 1.7c-.1.8 0 1.2.4 1.1s.6 0 .7.2.1.4.1.8c-.2.5-.3.9-.3 1.1s.1.3.2.4.4.1.8-.1.6-.1.6.4v1.2c0 .4.1.7.4 1.1.2.3.4.4.7.5l.4-.4c-.5 0-.8-.3-.7-1v-1.6c-.1-.2-.2-.4-.3-.5s-.1-.2-.2-.3c-.1 0-.1-.1-.2-.1s-.4-.7-.8-1.9c-.1-.2-.1-.4-.2-.7-.1-.4-.3-.8-.4-1.3h.8c.6 2.2 1.1 3.4 1.4 3.5.4.2.5.4.5.6s0 .7.2 1.4c.5-.1.7-.6.8-1.3s-.1-1.2-.6-1.6c-.6-.3-.9-.6-.9-.9-.2-.4 0-.7.5-.8.3-.2-.4-.8-2.1-1.9-.9-.6-1.1-1.1-.8-1.6.1-.2.4-.2.7 0 .4.2.6.3.7.2.2-.4 0-.6-.4-.8-.5-.1-.7-.3-.7-.5V20c.1-.3 0-.6-.1-1-.3-.4-.8-.4-1.6.1.2-.4.2-.9.1-1.3s-.3-.8-.6-1.2l-.4-1.2c-.1-.4.1-.7.7-.9-.2-.8-.2-1.4 0-1.7.2-.4.3-.7.4-.9s.3-.3.7-.1 1 .9 1.9 2.1c.4-.5.8-.3 1.2.5.5.7.6 1.6.6 2.6 1-.5 1.3-.2 1 1.1.4.9.7 1.5.8 2s0 .9-.2 1.3-.4.7-.4 1c0 .2.1.2.3 0s.5-.4 1-.6c.3.7.5 1.2.4 1.4 0 .3-.2.6-.5.9-.4.3-.6.7-.6 1.2 0 .2.1.4.4.4l.7-.2c.4 0 .4.2 0 .9s-.6 1.2-.8 1.7-.3.9-.3 1.1c0 .6-.1.9-.3 1.1.1-.8 0-1.5-.1-2.4-.1-.8-.3-1.7-.5-2.7.2-.2.5-.8.9-1.8.2-.5.1-.6-.1-.2-.3.8-.6 1.3-.9 1.4-.3-1-.6-2.1-.9-3.5.4-.7.6-1.5.7-2.5 0-.8 0-.9-.2-.2-.2 1-.4 1.8-.9 2.3-.3-1.1-.7-2.1-1.1-3.1.1-.5.2-1.2.2-1.9s-.1-.8-.2-.1c0 .5-.1 1-.2 1.4l-.9-2.2-.5-1.2c-.2-.4-.2-.4-.2 0l.5 1.6c-.4-.4-.8-.8-1.1-1s-.4-.2-.2 0c.6.5 1.1 1 1.5 1.6.3.8.7 1.7 1 2.6-1-.8-1.7-1.3-2.1-1.4-.5-.2-.5-.1 0 .3.7.4 1.5 1.2 2.5 2.3l.9 2.7c-.5-.3-1.1-.9-1.8-1.7-.3-.3-.3-.3 0 .2.6.9 1.2 1.6 2 2.3l.6 2.4c-.6-.6-1.4-1.2-2.3-1.8-.4-.3-.4-.2-.1.2.8.6 1.7 1.5 2.6 2.6.3.7.4 2.1.4 4 0 .5-.4.9-1.1 1.1l-.2 1.9h-1c-.5-.7-.9-1.3-1.2-1.7s-.7-1-1.2-1.8-.9-1.5-1.1-2-.3-1.1-.1-1.6v-.1l-.3.2c0 .1 0 .1-.1.2v-.1l-.7-2.1c0-.3.1-.7.3-1.1h-.3c-.1.2-.1.5-.2.7l-.3-.6-.9-2.1c0-.5.3-1.4.9-2.8.3-.7.3-.7-.2.1-.4.8-.7 1.5-.9 2.2-.1-.5-.2-.9-.3-1.3l-.3.3c.1.3.2.7.3 1-.2-.2-.5-.4-.7-.6l-.1.1c.4.3.7.5.9.8.3.7.6 1.4.9 2-.3-.2-.7-.4-1.2-.6 0 .1.1.2.1.3.4.2.8.5 1 .7l.3.3.8 2.1c-.3 0-.7-.4-1.1-1.3-.4-.7-1.4-1.4-2.9-2.1-.3-.1-.5-.4-.4-.8.1-.3.3-.4.9-.3-.2-.4-.3-.8-.6-1.1l-.3-.5c-.2-1 .1-1.4 1-1.4zm3.2 18.8v-.2.1c-.2.2-.3.5-.3.9.1 1.3.2 2 .3 2 .2 0 .3-.1.6-.3.2-.2.4-.3.6-.2.1 0 .2.3.3.8v.4c0 .7.1.8.2.2s.3-.8.6-.8.3.8.2 2.3c-1 .9-1.7 1.7-2.2 2.3-.2-.7-.2-1.1 0-1.4.1-.3.3-.5.4-.9l.3-.9c0-.1 0-.1.1-.2h-.1v.1c-.2.3-.3.6-.4.8s-.3.5-.4.7c0-.3-.2-.9-.4-1.7h-.3c.2 1.1.3 2.1.4 3.1-.4-.5-.9-.9-1.3-1.2l-.3-.3c0 .1-.1.2-.1.2l.5.5c.6.6 1 .9 1.1 1.1s.2.3.2.5c-.2.3-.5.6-.8 1-.1 0-.1-.1-.2-.2s-.1-.2-.2-.4c0-.2-.1-.4-.3-.5-.1-.1-.6-.5-1.3-1.1-.6-.6-.9-1.1-.6-1.6-.2-.2-.3-.5-.5-.8-.1-.3-.1-.6.1-.9s.7-.2 1.4.4c.1-.4.1-.9 0-1.2-.1-.4-.3-.8-.5-1.2-.3-.6-.7-1.2-1-1.6-.2-.3-.2-.6-.3-.7 0-.1 0-.2.1-.2.2-.1.4 0 .7.3.6-.7 1.1-.9 1.3-.6s.4.8.5 1.5.1 1.4 0 2.2l-.2.2.2.2c0 .2 0 .7-.2 1.8 0 .2.1.4.2.6 0-.3-.1-.5 0-.7 0-.1.1-.4.3-.9.1-.5.2-.8.2-.8 0-.1 0-.1-.2-.1.2-.1.3-.2.3-.3.1-.1.1-.3 0-.4 0-.1-.1-.5-.1-1.2s-.1-1.2-.2-1.5c-.1-.4-.2-.6-.2-.8s-.2-.3-.5-.3-.7.3-1.2.9c.2-1.1.5-1.9.7-2.2.3-.4.5-.5.8-.3s.4.3.5.5.2.2.4-.1c.2-.2.3-.3.4-.3.1.1.2.2.3.5.1.2.2.5.3.7 0 .3.1.7.1 1.4v.2c.1-.6.2-1.2.2-1.8l2.2-.5v-2.7c-.1-.1-.1-.2-.2-.3l-2.1-.4c-.1-1-.2-2.1-.5-3.1l.7-.4c.4 1.4 1.1 2.7 1.8 3.9h.2v.3c.2.3.3.5.5.8 0 .1 1 1.1 1.4 2.1-.1.6-.1 1.2-.1 1.2-.1 1.3-.4 2.4-.7 3.4-1.1-.5-1.3.2-1.5.9 0 0-.5-.1-.6.1 0-.1 0-.2-.1-.3-.2-.3-.7-.5-.9-.3l-.6.4c-.1.1-.1-.4-.2-.7 0-.2-.1-.9.1-1.2l.1-.1v-.7zm-4.3 11.2c-.3.3-.6.7-.7.9l.2 1.4c.1.6-.2 1.3-1 2-.7.7-1.2 1.4-1.5 2-.1.5-.6 1-1.5 1.5 0-.2-.3-.4-.6-.7-.1-.1-.2-.1-.3-.1-.9.2-2.7 1-5.3 2.3-.5.2-1.1.9-2 2.1h-1.6c-.4-.2-.9-.6-1.3-1-.3-.3-.9-.2-1.8.3-.8-.2-1.6 0-2.4.5-.5.2-.9.2-1.1.1l-1.9-2.1c-3.9-1.7-6.1-2.4-6.5-2.2s-.7.6-.9 1c-.4-.2-1-.7-1.8-1.5l-1.2-1.4c-.9-1-1.3-1.9-1.1-2.8l.2-1.2c0-.2 0-.3-.1-.4-.3-.3-.8-.5-1.1-.6-.1 0-.2-.1-.4.6 0 .2-1.2-1.7-1.3-1.8l.1-.1c.1.2.2.3.3.4l2.1-.9c.7.8 1.5 1.5 2.2 2.2l-.9 2.1c.4.3 2 1.5 2.4 1.7l1.7-1.5c.9.5 1.8 1 2.8 1.4l-.3 2.3c.5.2 2.3.8 2.8.9l1.1-2c1 .2 2.1.4 3.1.5l.5 2.3h2.9l.4-2.2c1-.1 2.1-.3 3.1-.5l1.1 2c.5-.1 2.4-.7 2.8-.9l-.3-2.3c1-.4 1.9-.9 2.8-1.4l1.7 1.5c.4-.3 2-1.4 2.4-1.7l-1-2.1c.8-.7 1.5-1.4 2.2-2.2l2.1.9c.2-.3.8-1 1.2-1.7l.1.1c-.2.3-1.5 2.4-1.5 2.4.3.1-.6-.4-.9-.1zm1.2.7c-.1.3-.2.8-.5.8s-.8-.3-.8-.7.3-.6.6-.6.8.2.7.5zm-9.4 10.2c-.1-.4 0-.8.5-1.1.4-.3.9-.4 1.4-.4.2 0 .2.4 0 1.1-.2.4-.9.8-2.3 1.3l-1.3-.2 1.4-.8.3.5h.2l-.2-.4zm1.7-2.1c-.3 0-.8.1-1.4.3s-.9.6-.9 1c-.1.3-.2.5-.4.6-.6.3-1.1.6-1.6.8l-1.2-.1.6-.9c.3-.4.7-.7 1.2-1 2.2-1.1 3.7-1.7 4.4-1.9.1-.1.2 0 .3.1l.3.4-.4.3c-.2.3-.5.4-.9.4zm-21.3-.9c-.4-.2-.8-.3-1-.2-.2 0-.4.3-.6.8l-.1-.1c.1-.4.3-.7.5-.8s.5-.1.8.1l1.9.9 3.2 1.2c.8.8 1.3 1.4 1.4 1.7-.7.1-1.4.1-2.1.2l-1.7-1.2c-.7-.8-1.2-1.4-1.5-1.8-.2-.3-.5-.6-.8-.8zm.6 1.4c-.4.2-.7.2-1.1 0l-.6-.5c.2-.5.5-.7.8-.5l.6.5.3.5zm-9.3-24.7c-.4 2.2-.7 4.9-.7 8.3v5.3l-.5-.6v-.3c-.1-.1-.2-.2-.2-.3l.1-.2c-.2-1.4-.3-2.8-.3-4.3v-.7c.1-1.5.3-3.1.7-4.8.5-2.2 1.1-3.3 1.6-3.4.3.8.5 2.1.7 4.2.2 2 .2 3.9 0 5.5-.2 2.1-.6 3.5-1 4.2l-.5 1.1v-4c0-1 .1-2.4.1-4 0-1.7.1-3.6.3-5.7-.1-.5-.2-.6-.3-.3zm-2.1 5.4c-.5.9-1 1.8-1.4 2.7-.5 1.1-.9 2.1-1.2 3.2-.2.6-.3 1.3-.4 2.1-.1-1.1.1-2.6.5-4.5.1-.5.3-1.1.5-1.6.5-1.4 1.3-2.8 2.4-4.3-.2 1.1-.4 1.9-.4 2.4zm.1 6.8l-.9-1.1.6-1.6c0 .9.1 1.8.3 2.7zm-3.9-7.4c-.3-.3-.6-1.4-1-3.5 0-.5.2-1.4.7-2.5.4-1.1 1.1-2.5 2-4 .1-.1.5-.5.6-.5s.3-.2.6-.3l.3.2c-.2 1-.4 2-.5 3.1l-2.2.5v2.9l2.2.5c.1.9.2 1.9.4 2.8 0 .1 0 .2.1.3l-.4.2-1.6.9c.1.2.3.8.4 1.4-.3.7-.5 1.3-.6 2-.2-.4-.4-.9-.6-1.6s-.3-1.2-.2-1.4c.2-.4.2-.7-.2-1zm7.6-1.6l-.1.1-.2.3v-.8l.1-.1.5-.6c.4-.4.6-.2.5.6 0 .7-.2 1.5-.3 2.4-.1.6-.3 1.2-.4 1.9 0-1.4-.1-2.4-.2-2.9l.2-.5.2-.5c-.1-.2-.2-.3-.3.1zm.4-2.1l-.7 1.1c0-.4-.1-.8-.2-1.1.2-.2.5-.3.7-.4.4-.2.4 0 .2.4zm9.4 14.3l6.6-8.4.9-.6.8.6 6.5 8.5c-4.6 2.1-10 2.1-14.8-.1zm34.6-14.8h.8c-.4 2-.8 4.1-1.1 5.5l-.6-.3c.5-1.9.7-4 .9-5.2zm-9.2-3.4c.2 1.6.1 3.3-.2 4.9-.4 0-.8.2-.7.8 0 .3.2.6.3 1-.7 2.7-2.1 5.3-4.1 7.5l-5.9-8.9-.3-1 .8-.6 10.1-3.7zm-2.2-6.8l-10.3 2.9h-1.1l-.3-.9-.3-10.7c5 1 9.4 4.1 12 8.7zm-19.1-8.8l-.5 10.7-.3 1h-1l-10.3-3c2.6-4.5 6.9-7.7 12.1-8.7zm-.6 12.2h.2l.1-.2 3.8-11 3.9 11 .1.2h.2l11.6.3-9.3 7.1-.1.1.1.2 3.3 11.1-9.6-6.6-.1-.1-.1.1-9.6 6.6 3.3-11.2.1-.2-.1-.1-9.2-7 11.4-.3zm-3.7 7l.8.6-.3 1-6.1 8.8c-1.4-1.6-2.5-3.4-3.3-5.3.3-1.5.6-3.3.5-3.9-.1-.4-.2-.6-.3-.6s-.2 0-.3.1l.2-.5c.1-.3.1-.6 0-.7s-.8-.1-1.4.2c-.1-1.1-.1-2.3.1-3.5l10.1 3.8zm-16.9-8.7l.8-2.5.7-.2c-.5 1-1 1.9-1.2 2.7h-.3zm-1 2.8l.2-1.1.6-.1-.8 2.1-.5 1.8.2-1.6.3-1.1zm.6-5.9l-1 2.8c.2-1.2.4-2.2.7-3.2l.3.4zm.9-4c1-1.7 2.3-4.1 3.7-7.2.4-.9 1.1-1.9 1.9-3.1.3-.6.1-.6-.4 0-1.3 1.6-2.8 4.1-4.4 7.5l.7-1.9c.1-.4.5-1.4 1.2-2.8.7-1.5 1.4-2.6 2.1-3.5s1.1-1.4 1.4-1.7c.9-.8 1.5-1.2 1.6-1.1s.2.3.1.5l-1.9 4.9c-1.2 2.4-2.9 4.9-4.9 7.6-.9.9-1.4 1.5-1.6 1.8s-.4.5-.5.7l.2-.7.8-1zm-1.5 21.3c0-.5-.1-.8-.2-1-.1-.1-.2-.4-.4-.7-.1-.4-.3-.9-.5-1.6s-.4-1.3-.5-1.9c-.1-.1-.3-.1-.4-.2-.5-.3-.9-.8-1.1-1.4-.3-.7-.6-1.7-.9-2.9s-.4-2.6-.3-4.3c.1-2 .4-3.9.9-5.8.6-2.6 2-5.1 4-7.4.4-.5.7-.6.8-.3.1.5.1 1 .1 1.5s0 1-.1 1.5c-.1 1-.4 2.1-.8 3.3-1 3.4-1.6 5.7-1.8 6.8-.4 1.4-.8 3.2-1.3 5.4-.1-.4-.1-1-.1-1.7 0-1.2.2-2.9.5-5 .5-3.4 1-5.9 1.7-7.3.3-.8.3-.9 0-.4-1.6 2.7-2.5 6.7-2.8 12-.1 1.8.1 3.2.3 4 .3.8.6 1.3.9 1.4.2.1.4.1.6 0 .2-1 .3-1.8.3-2.4.1-.6.1-1.3.2-2.1s.3-1.5.5-2l.2.2c-.3 1.2-.4 2-.4 2.5s0 .9-.1 1.4-.1 1.4-.1 2.7c.3-1.1.6-2.1 1-3l1.2-3.5 1.1-2.6c.2-.5.3-1 .4-1.2h.1c.6-1.2 1.4-2.5 2.4-3.9l-.3-.3c.3-.4 1.4-2 1.7-2.4l.5.2c.6-.6 1.2-.9 1.7-1 .2.3.2.8 0 1.6s-.5 1.6-.9 2.5c-1.1 2-2.1 3.6-3.1 4.8-.6.7-1.2 1.4-1.7 1.9l-.1.1v-.1l2-3.2.1-.1.6-1 1.3-2.3c.2-.4.4-.7.4-.9s0-.2-.2 0c-.3.5-.6.9-.9 1.4-.7 1.1-1.4 2.1-1.9 2.9-.9 1.4-1.5 2.4-1.8 3 0 0 0 .1-.1.1-.5 1-1 2-1.5 2.8-.5.9-.8 1.6-1 2.1s-.5 1.4-1 2.6c0 .2.1.9.5 2 .3 1.1.6 1.8.8 2s.2.4.1.6 0 .6.2 1.2c.1.6.4 1.5.9 2.6l-.1.4c-.7-1.1-1.2-2.3-1.6-3.6zm-1.3-11.6c-.3 2.1-.5 3.7-.7 4.9l-.2-.3c0-.3.2-1.8.9-4.6zm12.4 29.3l-.5-.7c-.2-.2-.4-.2-.6-.1-.3.1-.5-.1-.6-.5-.7.4-1.4.3-2.1-.5l-1.3-1.6-1.2-2.1-.4-.3c-.3.2-.6.2-.9.1-.5-.1-1-.4-1.6-1l-.4-.4c-.4-.6-1.1-1.8-2-3.6-1.6-3-2.7-5.3-3.2-6.8-.4-1.3-.7-2.1-.8-2.4s-.2-.3-.2-.2v.2c0 .1.1.3.1.6.1.4.2.9.5 1.6.4 1.1 1 2.8 2 5 .9 1.8 1.7 3.4 2.5 4.8-1.9-2.1-3.3-4-4.2-5.8s-1.4-3.5-1.7-5c-.1-.5-.2-1.4-.2-2.5v-.8c0-.7 0-1 .1-1.1.1-.4.3-.6.5-.5.2 0 .5.4 1.1 1.1.2.2.3.5.5.9.5.9 1.1 2.3 1.7 4.1 1 2.6 1.6 4.3 1.8 5.1s.4 1.5.7 2.1c.2.6.5 1.2.8 1.8.5.9.9 1.6 1.4 1.9.6.4 1.1.5 1.4.2l-1.4-2.5c-.1-.1-.3-.1-.4 0h-.4l-.1-.1-.1-.1c0-.1 0-.1-.1-.2v-.6c0-.5.2-1.3.5-2.4.4-1.2.8-2.4 1.4-3.6.3-.7.7-1.4 1.1-2.1-.1.8-.2 1.5-.2 2v.1c-1 2.2-1.7 3.9-2.1 5.2-.2 1-.2 1.4 0 1.4l.3-.2-.2-.5.2-.4.5.8.3-.2.2.4-.2.3 1.7 2.5.4-.3.3.3c-.5.5-.7.9-.6 1 .5.9.9 1.5 1.3 2.1.8 1.1 1.4 1.5 1.9 1 .2-.1.4-.1.6.1s.5.6.8 1.2V55l-1.4-1.4-.8-1.6c-.7-1-1.2-1.7-1.4-2.2-.3-.5-.6-1.1-1.1-1.9-.4-.7-1-1.5-1.6-2.5l.1-.4 1.2 1.5c1.1 1.4 1.9 2.5 2.4 3.3.5.7.7.9.8.5l.2-.7.4.2-.2 1.5-.1.5c0 .4 0 .6.2.6.2.1.3.3.5.7.1.3.5.8 1.2 1.6s1.5 1.5 2.3 2.1 1.5 1 2 1.4.8.7.8 1l.7.2-.2-.9.5-.1c.2.2.4.4.6.9.7.5 1.3.9 1.8 1.2l-1.7.3-2.9-1.8-3.2-1.9zm-7.2-9.2l.2-.2 1.1 1.8-.1.2-1.2-1.8zm1.9 3.7l.4-.5 1 1.4.6 1 .2.6c-.4-.2-.7-.5-.9-.8l-.6-.8-.7-.9zm9 9.4l-2.3.4.6-1.6 1.7 1.2zm5.5 7.3c-1.1 1.1-2.3 2.1-3.7 3l-.5-.2c.8-.5 1.9-1.3 3.4-2.4l.7-.7h-.3c-.5.4-1.1.9-1.7 1.3-.6.5-1.4.9-2.2 1.3l-1.1.6.2.2.9.1c.5.3.7.6.6.9-.3.4-.7.4-1.2.2l-.9-.5c-.3-.3-.7-.6-1-.7l-.4-.3.2-.4 1.2.5h.4l-.2-.7 1.4-.9c.4-.1.5-.4.5-.7l.1-.7c.6.1 1.2 0 2-.3.7-.3 1.4-.5 2-.6.1.4 0 .7-.4 1zm-.9-1.6c-1.4.3-2.6.6-3.7.8-2.7.5-5.4.9-8.1 1.2-.7-.2-2.6-1.2-5.8-3-2.3-1.4-3.9-2.5-4.8-3.4-1-1.1-1.5-1.8-1.3-2 .7-1.1 1.1-2.1 1.4-3 .1-.4.1-.6.1-.9-.3-.9-.1-1.3.6-1.4 1.7-.1 2.9-.1 3.5-.1.3 0 .4-.1.5-.2l.6-1.2-.4-.2-.5.8v-.9c0-.1.1-.2.2-.1 1.1.3 1.6.6 1.5 1.1-.3.6-.5 1.2-.5 2v2c-1.4-.9-2.9-1.7-4.4-2.4.2 0 .4 0 .6-.1.2 0 .4-.1.5-.3s-.1-.2-.4-.3c-.8 0-1.3.1-1.6.2-.2.2-.1.4.1.7 1.9.9 3.5 1.9 5 2.8 2.3 1.4 4 2.6 5.3 3.5 1.2 0 2.9-.2 5.1-.5l3.3-.6c1.4-.3 2.8-.5 4.3-.7.5-.1 1.2-.1 2.1-.2.8 0 1.6-.1 2.3-.2.7 1.3 1.1 2.4 1.2 3.3.1.5 0 .8-.2.8-2.9 1.5-5.2 2.2-6.5 2.5zm10-1.3l-.2-.6-1.1 1.3-.9.5c-.4.3-.8.5-1.2.4l-1.4-.7.7-.4.2.2c-.1.4 0 .3.5-.2l1.2-1.2c.1-.7-.1-1.6-.5-2.7s-.7-1.8-.9-2.1c-.1-.2-.7-.3-1.8-.2.7-.3 1.5-.4 2.4-.1l.9.4.5-.2-.1-.1-.9-.4h.5l.4.4.1.1.3.3c1.3 1.4 2.1 2.4 2.2 2.9.2.5.2 1 .1 1.5-.5.9-.8 1.1-1 .9zm4.2 5.5c-.2-.2-.3-.4-.2-.5l.8.7c-.1.1-.3 0-.6-.2zm5.1.1l.4.1-.2.2-1 .3c-.4.4-1 .6-1.6.8l-.7-.1-.2-.5c.2-.2.4-.4.6-.5s.6-.2 1-.3l.9.2.8-.2zm-1.5-.4c-.7 0-1.1.1-1.3.2h-.5c-.8-.5-1.4-1-1.8-1.4l-1.8-1.4c.3-.2 1.1-.1 2.2.2l3.2 2.4zm5.6-7.9c.7.1 1.3 0 1.7-.1.7-.3 2.1-1.3 4.3-3.2 2.1-1.6 3.9-2.7 5.3-3.3.4-.3.5-.5.1-.6s-1-.2-1.8-.2c-.3.2-.2.4.1.5.4 0 .6 0 .8.1-1.7.9-3.2 1.8-4.4 2.7.1-.6.2-1.6.3-3.1 0-.5-.2-.9-.5-1.2-.2-.3.1-.5.7-.7l.5-.2v.9l-.7-.2.1.4c.2.3.4.5.9.6l2.1.1h.9c1.1 0 1.6.3 1.6.8s0 1 .1 1.4c.2 1.1.6 2.2 1.3 3.2-.2.5-.5 1-1 1.6l-2 1.3c-1.7 1.2-4.1 2.9-7.1 4.9-2.1.1-4.7-.1-7.7-.5-2.2-.3-4.6-.8-7.5-1.6l-.6-.2.3-.3c.4-.6.7-1 .7-1.2s0-.6-.2-1.3-.7-1.5-1.5-2.4v-.2l.6-.1c1.6.1 3 .3 4.3.6s2.8.6 4.5.9c1.9.3 3.1.5 3.8.6zm-2.9-1.1c-.7-.1-1.8-.3-3.3-.6l1.4-.5c.7.2 1.1 0 1.2-.5.1.7.4 1.2.7 1.6zm8.1-11.5c-.5.6-.7 1.2-.5 1.8-.7.4-1.4 1-2.1 1.7-.7.8-1.2 1.4-1.5 1.9s-.7.8-1.1.9c-.4.2-1 .1-1.5-.3l-.2 1-2.6 1.6-1.3.5c.1-.3.2-.7.2-1.3l.5-.4c1.8-.9 2.8-1.8 3.1-2.6.4-.6.8-1.2 1.2-1.6s.7-1 .9-1.6v-.9l-.1-1c.4.5.8.6 1.1.3.5-1 1.1-2 1.8-2.8.6-.9 1.3-1.7 2-2.4.7-.8 1.3-1.4 1.8-1.9v1c-1.6 1.9-2.5 3.2-2.9 3.9-1.3 2-2.2 3.6-2.7 4.8-.3.7-.7 1.2-1.2 1.6-.4.2-.7.4-.9.7s-.1.4.3.3c.3-.3.5-.5.9-.6.6-.3 1.8-1.6 3.7-4.1v-1.4l.4-.7c0 .8 0 1.2.2 1.2.1.1.4-.1.6-.6.3-.5.9-1.9 2-4.2-.2.7-.2 1.3 0 1.8-.6.4-.8 1.2-.5 2.3l-1.6 1.1zm8.8-8.6c-.1.7-.3 1.2-.6 1.7-1.1 1.2-1.5 2-1.3 2.2.3.5.2 1.1-.2 1.7-.6.7-1.3 1.5-2.3 2.3.3.5.1 1-.6 1.3-.8.4-1.6.8-2.5 1.1 1.7-1.3 2.7-2.6 3.1-4.1.5-.5 1-.8 1.4-1s.4-.3.2-.3c-.5.2-1 .5-1.5.9.5-1 .8-2.1 1-3.2 1-1 1.7-1.8 1.9-2.3.4-.5.4-.7 0-.4-.4.6-1 1.3-1.8 2.1.4-1.1.7-2.4 1-3.7.1-.8.1-.9-.1-.4l-.4 1.4c-.2-.5-.4-1-.6-1.2l.5 1.6c-.1.7-.4 1.6-.7 2.8-.4-1-.8-2-1.4-2.8-.5-.7-.6-.7-.3 0 .6.9 1.1 2 1.5 3.4-.3 1.2-.7 2.3-1.1 3.1-.3-.5-.6-.8-1-1-.3-.1-.3-.1 0 .2s.6.7.8 1c-.3.8-.7 1.4-1.2 2s-1 1.1-1.5 1.4c.6-1 .8-2 .6-3.2 0-.2.2-.4.5-.5s.4-.3.3-.4c-.3-.6-.4-1-.4-1.4.2-.1.5-.1.9 0 .3-.2.3-.6-.1-1s-.7-1-.8-1.9c0-.5.3-.6.9-.5.3 0 .3-.4.1-1l-.7-.9c-.5-1-.3-1.4.6-1.1l1 .6c.7.3 1-.2 1-1.4 0-.3.2-.3.6-.2s.8-.2 1.1-.9c.3-.4.6 0 .8 1-.1 1.4.3 2 1 1.9.4.1.4.4.3 1.1zm1.2-3.4c0 .3 0 .5-.2.6-.1.2-.5.3-.9.4l-.4-.8c0-.6-.2-1.2-.6-1.8.2-.2.5-.3.9-.5.3-.1.2-.2-.2-.1s-.7.2-1 .3h-.1c.2-.8.6-1.6 1.1-2.4.1-.3.1-.3-.2 0-.4.6-.8 1.3-1.2 2-.2-.2-.3-.4-.4-.9s-.2-.5-.2 0c.1.6.2 1 .4 1.3-.6.9-1 1.2-1.4 1.1.2-1.2.5-2.6.8-3.9.6-.6 1.1-.8 1.6-.6.6-.5 1.2-.6 1.6-.3.2.4.3.8.3 1.1 0 .4-.2.8-.4 1.3.5 0 .8.2.8.6-.2.9-.6 1.5-1.2 1.9.5.3.8.5.9.7z"/></svg>