<?xml version="1.0" encoding="UTF-8" standalone="no"?>
<!-- Created with Inkscape (http://www.inkscape.org/) -->
<svg id="svg3670" xmlns:rdf="http://www.w3.org/1999/02/22-rdf-syntax-ns#" xmlns="http://www.w3.org/2000/svg" height="20.687mm" width="25.767mm" version="1.1" xmlns:cc="http://creativecommons.org/ns#" xmlns:dc="http://purl.org/dc/elements/1.1/" viewBox="0 0 91.300002 73.300002">
 <metadata id="metadata3675">
  <rdf:RDF>
   <cc:Work rdf:about="">
    <dc:format>image/svg+xml</dc:format>
    <dc:type rdf:resource="http://purl.org/dc/dcmitype/StillImage"/>
    <dc:title/>
   </cc:Work>
  </rdf:RDF>
 </metadata>
 <g id="layer1" transform="translate(-165.78 -244.28)">
  <g id="g120" transform="translate(68.479 196.78)">
   <g id="g122" fill="#fff">
    <path id="path124" d="m129.1 119.4v-56.2h15.1v56.3h-15.1z"/>
    <path id="path126" d="m188.4 76h-13.8v23.1c0 2.3 0.1 3.8 0.2 4.8 0.1 0.9 0.5 1.7 1.2 2.4s1.8 1 3.3 1l8.6-0.2 0.7 12c-5 1.1-8.9 1.7-11.5 1.7-6.8 0-11.4-1.5-13.8-4.6-2.5-3-3.7-8.6-3.7-16.8v-51.9h15.1v15.6h13.8v12.9z"/>
    <path id="path128" d="m106.4 80.3c-2.6 0-4.8-0.9-6.5-2.7s-2.6-4-2.6-6.6 0.9-4.8 2.5-6.6c1.7-1.8 3.9-2.6 6.5-2.6s4.8 0.9 6.5 2.7 2.5 4 2.5 6.7-0.8 4.8-2.5 6.6c-1.6 1.6-3.7 2.5-6.4 2.5z"/>
   </g>
  </g>
 </g>
</svg>
